<?xml version="1.0" encoding="utf-8"?>
<!-- Generator: Adobe Illustrator 25.2.1, SVG Export Plug-In . SVG Version: 6.00 Build 0)  -->
<svg version="1.1" id="Layer_1" xmlns="http://www.w3.org/2000/svg" xmlns:xlink="http://www.w3.org/1999/xlink" x="0px" y="0px"
	 viewBox="0 0 2759 1386" style="enable-background:new 0 0 2759 1386;" xml:space="preserve">
<style type="text/css">
	.st0{fill:#383E42;stroke:#FFFFFF;stroke-width:4.5833;stroke-miterlimit:8;}
	.st1{enable-background:new    ;}
	.st2{fill:#BF9000;}
	.st3{fill-rule:evenodd;clip-rule:evenodd;fill:#C00000;}
	.st4{clip-path:url(#SVGID_2_);}
	.st5{fill:#FFFFFF;}
	.st6{fill-rule:evenodd;clip-rule:evenodd;}
	.st7{clip-path:url(#SVGID_4_);}
	.st8{clip-path:url(#SVGID_6_);}
	.st9{clip-path:url(#SVGID_8_);}
	.st10{clip-path:url(#SVGID_10_);}
	.st11{clip-path:url(#SVGID_12_);}
	.st12{clip-path:url(#SVGID_14_);}
	.st13{clip-path:url(#SVGID_16_);}
	.st14{clip-path:url(#SVGID_18_);}
	.st15{clip-path:url(#SVGID_20_);}
	.st16{clip-path:url(#SVGID_22_);}
	.st17{clip-path:url(#SVGID_24_);}
	.st18{clip-path:url(#SVGID_26_);}
	.st19{clip-path:url(#SVGID_28_);}
	.st20{clip-path:url(#SVGID_30_);}
	.st21{clip-path:url(#SVGID_32_);}
	.st22{clip-path:url(#SVGID_34_);}
	.st23{clip-path:url(#SVGID_36_);}
	.st24{clip-path:url(#SVGID_38_);}
	.st25{clip-path:url(#SVGID_40_);}
	.st26{clip-path:url(#SVGID_42_);}
	.st27{clip-path:url(#SVGID_44_);}
	.st28{clip-path:url(#SVGID_46_);}
	.st29{clip-path:url(#SVGID_48_);}
	.st30{clip-path:url(#SVGID_50_);}
	.st31{clip-path:url(#SVGID_52_);}
	.st32{clip-path:url(#SVGID_54_);}
	.st33{clip-path:url(#SVGID_56_);}
	.st34{clip-path:url(#SVGID_58_);}
	.st35{clip-path:url(#SVGID_60_);}
	.st36{clip-path:url(#SVGID_62_);}
	.st37{clip-path:url(#SVGID_64_);}
	.st38{clip-path:url(#SVGID_66_);}
	.st39{clip-path:url(#SVGID_68_);}
	.st40{clip-path:url(#SVGID_70_);}
	.st41{clip-path:url(#SVGID_72_);}
	.st42{fill-rule:evenodd;clip-rule:evenodd;fill:#383E42;stroke:#FFFFFF;stroke-width:4.5833;stroke-miterlimit:8;}
	.st43{clip-path:url(#SVGID_74_);}
	.st44{clip-path:url(#SVGID_76_);}
	.st45{clip-path:url(#SVGID_78_);}
	.st46{fill:none;stroke:#FFFFFF;stroke-width:9.1667;stroke-miterlimit:8;}
	.st47{fill-rule:evenodd;clip-rule:evenodd;fill:#C00000;stroke:#FFFFFF;stroke-width:4.5833;stroke-miterlimit:8;}
	.st48{fill-rule:evenodd;clip-rule:evenodd;stroke:#FFFFFF;stroke-width:4.5833;stroke-miterlimit:8;}
	.st49{fill-rule:evenodd;clip-rule:evenodd;fill:#548235;stroke:#FFFFFF;stroke-width:4.5833;stroke-miterlimit:8;}
	.st50{clip-path:url(#SVGID_80_);}
	.st51{clip-path:url(#SVGID_82_);}
</style>
<g>
	<g>
		<g transform="translate(-788 -229)">
			<rect x="3348.5" y="231.5" class="st0" width="196" height="327"/>
			<g class="st1">
				<path class="st2" d="M3462.1,422.1h9.3v35.1c-3.5-0.4-6.8-1.5-10-3.4c-3.1-1.9-7.3-5.7-12.5-11.3c-4.2-4.5-7.1-7.3-8.6-8.3
					c-2.1-1.4-4.1-2.1-6.1-2.1c-2.2,0-4,0.6-5.2,1.8c-1.2,1.2-1.8,2.9-1.8,5s0.6,3.8,1.9,5c1.3,1.2,3.4,1.9,6.3,2.1l-1,10
					c-5.5-0.6-9.5-2.5-11.9-5.6s-3.6-7.1-3.6-11.8c0-5.2,1.4-9.2,4.2-12.2c2.8-2.9,6.2-4.4,10.4-4.4c2.4,0,4.6,0.4,6.7,1.3
					c2.1,0.8,4.4,2.2,6.7,4c1.5,1.2,3.8,3.4,6.7,6.6s4.8,5.2,5.8,6s1.9,1.5,2.8,2L3462.1,422.1L3462.1,422.1z"/>
				<path class="st2" d="M3443.6,391h-10v-10h10V391z M3471.4,391h-10v-10h10V391z"/>
				<path class="st2" d="M3471.4,324.8v10h-37.7c3.4,3.7,6,8,7.6,12.9h-9.1c-0.9-2.6-2.5-5.5-4.9-8.5c-2.4-3.1-5.2-5.2-8.4-6.3v-8.1
					H3471.4z"/>
			</g>
			<rect x="1774.5" y="231.5" class="st0" width="197" height="327"/>
			<rect x="1971.5" y="231.5" class="st0" width="196" height="327"/>
			<rect x="2167.5" y="231.5" class="st0" width="195" height="327"/>
			<rect x="2362.5" y="231.5" class="st0" width="197" height="327"/>
			<rect x="2564.5" y="231.5" class="st0" width="195" height="327"/>
			<rect x="2758.5" y="231.5" class="st0" width="195" height="327"/>
			<rect x="2953.5" y="231.5" class="st0" width="195" height="327"/>
			<rect x="3148.5" y="231.5" class="st0" width="194" height="327"/>
			<rect x="985.5" y="231.5" class="st0" width="196" height="327"/>
			<rect x="1181.5" y="231.5" class="st0" width="197" height="327"/>
			<rect x="1378.5" y="231.5" class="st0" width="196" height="327"/>
			<rect x="1574.5" y="231.5" class="st0" width="194" height="327"/>
			<rect x="3348.5" y="558.5" class="st0" width="196" height="328"/>
			<g class="st1">
				<path class="st2" d="M3462.1,749.1h9.3v35.1c-3.5-0.4-6.8-1.5-10-3.4c-3.1-1.9-7.3-5.7-12.5-11.3c-4.2-4.5-7.1-7.3-8.6-8.3
					c-2.1-1.4-4.1-2.1-6.1-2.1c-2.2,0-4,0.6-5.2,1.8s-1.8,2.9-1.8,5s0.6,3.8,1.9,5c1.3,1.2,3.4,1.9,6.3,2.1l-1,10
					c-5.5-0.6-9.5-2.5-11.9-5.6s-3.6-7.1-3.6-11.8c0-5.2,1.4-9.2,4.2-12.2c2.8-2.9,6.2-4.4,10.4-4.4c2.4,0,4.6,0.4,6.7,1.3
					c2.1,0.8,4.4,2.2,6.7,4c1.5,1.2,3.8,3.4,6.7,6.6c2.9,3.2,4.8,5.2,5.8,6s1.9,1.5,2.8,2L3462.1,749.1L3462.1,749.1z"/>
				<path class="st2" d="M3443.6,718h-10v-10h10V718z M3471.4,718h-10v-10h10V718z"/>
				<path class="st2" d="M3471.4,651.8v10h-37.7c3.4,3.7,6,8,7.6,12.9h-9.1c-0.9-2.6-2.5-5.5-4.9-8.5c-2.4-3.1-5.2-5.2-8.4-6.3v-8.1
					L3471.4,651.8L3471.4,651.8z"/>
			</g>
			<rect x="1774.5" y="558.5" class="st0" width="197" height="328"/>
			<rect x="1971.5" y="558.5" class="st0" width="196" height="328"/>
			<rect x="2167.5" y="558.5" class="st0" width="195" height="328"/>
			<rect x="2362.5" y="558.5" class="st0" width="197" height="328"/>
			<rect x="2564.5" y="558.5" class="st0" width="195" height="328"/>
			<rect x="2758.5" y="558.5" class="st0" width="195" height="328"/>
			<rect x="2953.5" y="558.5" class="st0" width="195" height="328"/>
			<rect x="3148.5" y="558.5" class="st0" width="194" height="328"/>
			<rect x="985.5" y="558.5" class="st0" width="196" height="328"/>
			<rect x="1181.5" y="558.5" class="st0" width="197" height="328"/>
			<rect x="1378.5" y="558.5" class="st0" width="196" height="328"/>
			<rect x="1574.5" y="558.5" class="st0" width="194" height="328"/>
			<rect x="3348.5" y="887.5" class="st0" width="196" height="327"/>
			<g class="st1">
				<path class="st2" d="M3461.5,1077.1h9.3v35.1c-3.5-0.4-6.8-1.5-10-3.4c-3.1-1.9-7.3-5.7-12.5-11.3c-4.2-4.5-7.1-7.3-8.6-8.3
					c-2.1-1.4-4.1-2.1-6.1-2.1c-2.2,0-4,0.6-5.2,1.8c-1.2,1.2-1.8,2.9-1.8,5s0.6,3.8,1.9,5c1.3,1.2,3.4,1.9,6.3,2.1l-1,10
					c-5.5-0.6-9.5-2.5-11.9-5.6s-3.6-7.1-3.6-11.8c0-5.2,1.4-9.2,4.2-12.2c2.8-2.9,6.2-4.4,10.4-4.4c2.4,0,4.6,0.4,6.7,1.3
					c2.1,0.8,4.4,2.2,6.7,4c1.5,1.2,3.8,3.4,6.7,6.6s4.8,5.2,5.8,6s1.9,1.5,2.8,2L3461.5,1077.1L3461.5,1077.1z"/>
				<path class="st2" d="M3443,1046h-10v-10h10V1046z M3470.8,1046h-10v-10h10V1046z"/>
				<path class="st2" d="M3470.8,979.8v10h-37.7c3.4,3.7,6,8,7.6,12.9h-9.1c-0.9-2.6-2.5-5.5-4.9-8.5c-2.4-3.1-5.2-5.2-8.4-6.3v-8.1
					L3470.8,979.8L3470.8,979.8z"/>
			</g>
			<rect x="1774.5" y="887.5" class="st0" width="196" height="327"/>
			<rect x="1971.5" y="887.5" class="st0" width="194" height="327"/>
			<rect x="2165.5" y="887.5" class="st0" width="194" height="327"/>
			<rect x="2359.5" y="887.5" class="st0" width="197" height="327"/>
			<rect x="2561.5" y="887.5" class="st0" width="195" height="327"/>
			<rect x="2756.5" y="887.5" class="st0" width="195" height="327"/>
			<rect x="2951.5" y="887.5" class="st0" width="195" height="327"/>
			<rect x="3146.5" y="887.5" class="st0" width="196" height="327"/>
			<rect x="985.5" y="887.5" class="st0" width="197" height="327"/>
			<rect x="1182.5" y="887.5" class="st0" width="197" height="327"/>
			<rect x="1379.5" y="887.5" class="st0" width="196" height="327"/>
			<rect x="1575.5" y="887.5" class="st0" width="193" height="327"/>
			<path class="st3" d="M1084,1175c-46.4,0-84-56.2-84-125.5s37.6-125.5,84-125.5s84,56.2,84,125.5S1130.4,1175,1084,1175z"/>
			<g>
				<g>
					<g>
						<defs>
							<rect id="SVGID_1_" x="1024" y="961" width="120" height="178"/>
						</defs>
						<clipPath id="SVGID_2_">
							<use xlink:href="#SVGID_1_"  style="overflow:visible;"/>
						</clipPath>
						<g class="st4">
							<g class="st1">
								<path class="st5" d="M1109.4,1039.3v10h-37.7c3.4,3.7,6,8,7.6,12.9h-9.1c-0.9-2.6-2.5-5.5-4.9-8.5c-2.4-3.1-5.2-5.2-8.4-6.3
									v-8.1H1109.4z"/>
							</g>
						</g>
					</g>
				</g>
			</g>
			<path class="st6" d="M1084,848c-46.4,0-84-56-84-125s37.6-125,84-125s84,56,84,125S1130.4,848,1084,848z"/>
			<g>
				<g>
					<g>
						<defs>
							<rect id="SVGID_3_" x="1024" y="634" width="120" height="177"/>
						</defs>
						<clipPath id="SVGID_4_">
							<use xlink:href="#SVGID_3_"  style="overflow:visible;"/>
						</clipPath>
						<g class="st7">
							<g class="st1">
								<path class="st5" d="M1100,704.1h9.3v35.1c-3.5-0.4-6.8-1.5-10-3.4c-3.1-1.9-7.3-5.7-12.5-11.3c-4.2-4.5-7.1-7.3-8.6-8.3
									c-2.1-1.4-4.1-2.1-6.1-2.1c-2.2,0-4,0.6-5.2,1.8s-1.8,2.9-1.8,5s0.6,3.8,1.9,5s3.4,1.9,6.3,2.1l-1,10
									c-5.5-0.6-9.5-2.5-11.9-5.6s-3.6-7.1-3.6-11.8c0-5.2,1.4-9.2,4.2-12.2c2.8-2.9,6.2-4.4,10.4-4.4c2.4,0,4.6,0.4,6.7,1.3
									c2.1,0.8,4.4,2.2,6.7,4c1.5,1.2,3.8,3.4,6.7,6.6c2.9,3.2,4.8,5.2,5.8,6s1.9,1.5,2.8,2v-19.8L1100,704.1L1100,704.1z"/>
							</g>
						</g>
					</g>
				</g>
			</g>
			<path class="st6" d="M1281,1175c-46.9,0-85-56.2-85-125.5s38.1-125.5,85-125.5s85,56.2,85,125.5S1327.9,1175,1281,1175z"/>
			<g>
				<g>
					<g>
						<defs>
							<rect id="SVGID_5_" x="1221" y="961" width="121" height="178"/>
						</defs>
						<clipPath id="SVGID_6_">
							<use xlink:href="#SVGID_5_"  style="overflow:visible;"/>
						</clipPath>
						<g class="st8">
							<g class="st1">
								<path class="st5" d="M1306.6,1045.3h-10.5v21.4h-8.8l-33.2-22.7v-8.4h33.1v-6.5h8.8v6.5h10.5L1306.6,1045.3L1306.6,1045.3z
									 M1287.3,1045.3h-17.9l17.9,12V1045.3z"/>
							</g>
						</g>
					</g>
				</g>
			</g>
			<path class="st3" d="M1281,848c-46.9,0-85-56-85-125s38.1-125,85-125s85,56,85,125S1327.9,848,1281,848z"/>
			<g>
				<g>
					<g>
						<defs>
							<rect id="SVGID_7_" x="1221" y="634" width="121" height="177"/>
						</defs>
						<clipPath id="SVGID_8_">
							<use xlink:href="#SVGID_7_"  style="overflow:visible;"/>
						</clipPath>
						<g class="st9">
							<g class="st1">
								<path class="st5" d="M1293.2,737.8l-1-10c2.3-0.3,4-1.1,5.4-2.5c1.3-1.4,2-3,2-4.8c0-2.1-0.8-3.9-2.5-5.3
									c-1.7-1.4-4.3-2.2-7.7-2.2c-3.2,0-5.6,0.7-7.2,2.2c-1.6,1.4-2.4,3.3-2.4,5.6c0,2.9,1.3,5.5,3.8,7.7l-1.2,8.1l-27.2-5.1V705
									h9.4v18.9l8.9,1.6c-1.1-2.2-1.7-4.5-1.7-6.8c0-4.4,1.6-8.2,4.8-11.3c3.2-3.1,7.4-4.6,12.6-4.6c4.3,0,8.1,1.2,11.5,3.7
									c4.6,3.4,6.9,8.1,6.9,14.2c0,4.8-1.3,8.8-3.9,11.8C1301,735.3,1297.5,737.2,1293.2,737.8z"/>
							</g>
						</g>
					</g>
				</g>
			</g>
			<path class="st3" d="M1477.5,1175c-46.7,0-84.5-56.2-84.5-125.5s37.8-125.5,84.5-125.5s84.5,56.2,84.5,125.5
				S1524.2,1175,1477.5,1175z"/>
			<g>
				<g>
					<g>
						<defs>
							<rect id="SVGID_9_" x="1417" y="961" width="121" height="178"/>
						</defs>
						<clipPath id="SVGID_10_">
							<use xlink:href="#SVGID_9_"  style="overflow:visible;"/>
						</clipPath>
						<g class="st10">
							<g class="st1">
								<path class="st5" d="M1460.3,1064.9h-9.3v-34.3h7.3c2.8,2.8,6.8,5.7,12,8.6s10.7,5.2,16.6,6.7s11.1,2.3,15.7,2.3v9.7
									c-7.2-0.2-14.6-1.7-22.1-4.5s-14.2-6.6-20.1-11.3L1460.3,1064.9L1460.3,1064.9z"/>
							</g>
						</g>
					</g>
				</g>
			</g>
			<path class="st6" d="M1477.5,848c-46.7,0-84.5-56-84.5-125s37.8-125,84.5-125s84.5,56,84.5,125S1524.2,848,1477.5,848z"/>
			<g>
				<g>
					<g>
						<defs>
							<rect id="SVGID_11_" x="1417" y="634" width="121" height="177"/>
						</defs>
						<clipPath id="SVGID_12_">
							<use xlink:href="#SVGID_11_"  style="overflow:visible;"/>
						</clipPath>
						<g class="st11">
							<g class="st1">
								<path class="st5" d="M1474.4,729.3c-1.1,2.6-2.6,4.5-4.5,5.6c-1.9,1.2-4,1.8-6.3,1.8c-3.9,0-7.1-1.4-9.7-4.1
									c-2.5-2.7-3.8-6.6-3.8-11.6s1.3-8.8,3.8-11.6c2.5-2.7,5.8-4.1,9.7-4.1c2.4,0,4.6,0.6,6.5,1.9c1.9,1.3,3.3,3,4.3,5.3
									c1.2-2.9,2.9-5.1,5.1-6.6s4.8-2.3,7.7-2.3c4.8,0,8.7,1.5,11.8,4.6c3,3.1,4.5,7.2,4.5,12.3c0,4.8-1.2,8.7-3.7,11.9
									c-2.9,3.7-7,5.6-12.1,5.6c-2.8,0-5.4-0.7-7.8-2.1C1477.5,734.5,1475.7,732.3,1474.4,729.3z M1464.3,727.2
									c2,0,3.6-0.6,4.7-1.7c1.1-1.1,1.7-2.6,1.7-4.5s-0.6-3.4-1.7-4.6c-1.1-1.1-2.7-1.7-4.7-1.7c-1.9,0-3.4,0.6-4.5,1.7
									c-1.1,1.1-1.7,2.6-1.7,4.5s0.6,3.5,1.7,4.6S1462.4,727.2,1464.3,727.2z M1486.7,728.2c2.8,0,4.9-0.7,6.5-2.1
									c1.5-1.4,2.3-3.2,2.3-5.3s-0.7-3.8-2.2-5.1s-3.6-2-6.4-2c-2.4,0-4.4,0.7-5.9,2.1c-1.5,1.4-2.2,3.1-2.2,5.2
									c0,2.4,0.8,4.3,2.5,5.5C1482.9,727.6,1484.7,728.2,1486.7,728.2z"/>
							</g>
						</g>
					</g>
				</g>
			</g>
			<path class="st6" d="M1670.5,1175c-46.7,0-84.5-56.2-84.5-125.5s37.8-125.5,84.5-125.5s84.5,56.2,84.5,125.5
				S1717.2,1175,1670.5,1175z"/>
			<g>
				<g>
					<g>
						<defs>
							<rect id="SVGID_13_" x="1610" y="961" width="120" height="178"/>
						</defs>
						<clipPath id="SVGID_14_">
							<use xlink:href="#SVGID_13_"  style="overflow:visible;"/>
						</clipPath>
						<g class="st12">
							<g class="st1">
								<path class="st5" d="M1695.7,1058.3v10H1658c3.4,3.7,6,8,7.6,12.9h-9.1c-0.9-2.6-2.5-5.5-4.9-8.5c-2.4-3.1-5.2-5.2-8.4-6.3
									v-8.1H1695.7z"/>
								<path class="st5" d="M1643.2,1026.4c0-5.1,1.8-9,5.4-11.9c4.3-3.4,11.4-5.1,21.3-5.1s17,1.7,21.3,5.1
									c3.6,2.8,5.3,6.8,5.3,11.8c0,5.1-2,9.2-5.9,12.3c-3.9,3.1-10.9,4.7-20.9,4.7c-9.8,0-16.9-1.7-21.2-5.1
									C1645,1035.4,1643.2,1031.4,1643.2,1026.4z M1651.5,1026.4c0,1.2,0.4,2.3,1.2,3.2s2.2,1.7,4.2,2.2c2.6,0.7,7,1,13.1,1
									s10.3-0.3,12.6-0.9c2.3-0.6,3.8-1.4,4.6-2.3c0.8-0.9,1.1-2,1.1-3.2s-0.4-2.3-1.2-3.2c-0.8-1-2.2-1.7-4.2-2.2
									c-2.6-0.7-6.9-1-13-1s-10.3,0.3-12.6,0.9c-2.3,0.6-3.8,1.4-4.6,2.3C1651.9,1024.1,1651.5,1025.2,1651.5,1026.4z"/>
							</g>
						</g>
					</g>
				</g>
			</g>
			<path class="st6" d="M1670.5,848c-46.7,0-84.5-56-84.5-125s37.8-125,84.5-125s84.5,56,84.5,125S1717.2,848,1670.5,848z"/>
			<g>
				<g>
					<g>
						<defs>
							<rect id="SVGID_15_" x="1610" y="634" width="120" height="177"/>
						</defs>
						<clipPath id="SVGID_16_">
							<use xlink:href="#SVGID_15_"  style="overflow:visible;"/>
						</clipPath>
						<g class="st13">
							<g class="st1">
								<path class="st5" d="M1695.7,731.3v10H1658c3.4,3.7,6,8,7.6,12.9h-9.1c-0.9-2.6-2.5-5.5-4.9-8.5c-2.4-3.1-5.2-5.2-8.4-6.3
									v-8.1L1695.7,731.3L1695.7,731.3z"/>
								<path class="st5" d="M1695.7,694.7v10H1658c3.4,3.7,6,8,7.6,12.9h-9.1c-0.9-2.6-2.5-5.5-4.9-8.5c-2.4-3.1-5.2-5.2-8.4-6.3
									v-8.1L1695.7,694.7L1695.7,694.7z"/>
							</g>
						</g>
					</g>
				</g>
			</g>
			<path class="st6" d="M1872.5,1175c-46.7,0-84.5-56.2-84.5-125.5s37.8-125.5,84.5-125.5s84.5,56.2,84.5,125.5
				S1919.2,1175,1872.5,1175z"/>
			<g>
				<g>
					<g>
						<defs>
							<rect id="SVGID_17_" x="1812" y="961" width="120" height="178"/>
						</defs>
						<clipPath id="SVGID_18_">
							<use xlink:href="#SVGID_17_"  style="overflow:visible;"/>
						</clipPath>
						<g class="st14">
							<g class="st1">
								<path class="st5" d="M1897.5,1058.3v10h-37.7c3.4,3.7,6,8,7.6,12.9h-9.1c-0.9-2.6-2.5-5.5-4.9-8.5c-2.4-3.1-5.2-5.2-8.4-6.3
									v-8.1H1897.5z"/>
								<path class="st5" d="M1883.6,1043.7l-1.2-9.7c2.5-0.3,4.4-1.1,5.7-2.5c1.3-1.4,2-3,2-4.9c0-2.1-0.8-3.8-2.4-5.2
									s-3.7-2.1-6.3-2.1c-2.5,0-4.5,0.7-6,2c-1.5,1.4-2.2,3-2.2,5c0,1.3,0.2,2.8,0.7,4.6l-8.2-1.1c0.1-2.7-0.5-4.8-1.8-6.2
									c-1.2-1.4-2.9-2.1-5-2.1c-1.8,0-3.2,0.5-4.2,1.6c-1,1.1-1.6,2.4-1.6,4.2c0,1.7,0.6,3.2,1.8,4.4c1.2,1.2,2.9,1.9,5.2,2.2
									l-1.6,9.2c-3.2-0.6-5.7-1.6-7.6-2.9s-3.4-3.1-4.5-5.4s-1.6-4.9-1.6-7.8c0-4.9,1.6-8.9,4.7-11.8c2.6-2.4,5.5-3.7,8.7-3.7
									c4.6,0,8.2,2.5,11,7.5c0.6-3,2.1-5.4,4.3-7.2c2.2-1.8,4.9-2.7,8.1-2.7c4.6,0,8.5,1.7,11.7,5s4.8,7.5,4.8,12.5
									c0,4.7-1.4,8.6-4.1,11.8C1891.5,1041.4,1888,1043.2,1883.6,1043.7z"/>
							</g>
						</g>
					</g>
				</g>
			</g>
			<path class="st3" d="M1872.5,848c-46.7,0-84.5-56-84.5-125s37.8-125,84.5-125s84.5,56,84.5,125S1919.2,848,1872.5,848z"/>
			<g>
				<g>
					<g>
						<defs>
							<rect id="SVGID_19_" x="1812" y="634" width="120" height="177"/>
						</defs>
						<clipPath id="SVGID_20_">
							<use xlink:href="#SVGID_19_"  style="overflow:visible;"/>
						</clipPath>
						<g class="st15">
							<g class="st1">
								<path class="st5" d="M1897.5,731.3v10h-37.7c3.4,3.7,6,8,7.6,12.9h-9.1c-0.9-2.6-2.5-5.5-4.9-8.5c-2.4-3.1-5.2-5.2-8.4-6.3
									v-8.1L1897.5,731.3L1897.5,731.3z"/>
								<path class="st5" d="M1897.5,696.7H1887V718h-8.8l-33.2-22.7V687h33.1v-6.5h8.8v6.5h10.5L1897.5,696.7L1897.5,696.7z
									 M1878.1,696.7h-17.9l17.9,12V696.7z"/>
							</g>
						</g>
					</g>
				</g>
			</g>
			<path class="st3" d="M2066,1175c-46.9,0-85-56.2-85-125.5s38.1-125.5,85-125.5c46.9,0,85,56.2,85,125.5S2112.9,1175,2066,1175z"
				/>
			<g>
				<g>
					<g>
						<defs>
							<rect id="SVGID_21_" x="2005" y="961" width="121" height="178"/>
						</defs>
						<clipPath id="SVGID_22_">
							<use xlink:href="#SVGID_21_"  style="overflow:visible;"/>
						</clipPath>
						<g class="st16">
							<g class="st1">
								<path class="st5" d="M2091.2,1058.3v10h-37.7c3.4,3.7,6,8,7.6,12.9h-9.1c-0.9-2.6-2.5-5.5-4.9-8.5c-2.4-3.1-5.2-5.2-8.4-6.3
									v-8.1H2091.2z"/>
								<path class="st5" d="M2051.7,1009.4l1.1,9.7c-2,0.2-3.5,0.9-4.4,1.9s-1.4,2.3-1.4,3.9c0,2.1,1,3.9,2.9,5.4
									c1.9,1.5,5.9,2.4,11.9,2.8c-2.9-2.5-4.4-5.6-4.4-9.3c0-4.2,1.6-7.8,4.8-10.7c3.2-3,7.3-4.5,12.3-4.5c5.3,0,9.6,1.6,12.9,4.7
									c3.2,3.1,4.8,7.2,4.8,12.1c0,5.3-2,9.6-6.1,13s-10.8,5.1-20.2,5.1c-9.6,0-16.5-1.8-20.7-5.3s-6.3-8.1-6.3-13.8
									c0-4,1.1-7.3,3.3-9.9C2044.3,1011.7,2047.5,1010.1,2051.7,1009.4z M2073.6,1032.1c3.3,0,5.8-0.7,7.5-2.2s2.7-3.2,2.7-5.1
									s-0.7-3.4-2.2-4.6s-3.8-1.9-7.1-1.9c-3.4,0-5.9,0.7-7.5,2s-2.4,3-2.4,5c0,1.9,0.8,3.6,2.3,4.9
									C2068.4,1031.4,2070.6,1032.1,2073.6,1032.1z"/>
							</g>
						</g>
					</g>
				</g>
			</g>
			<path class="st6" d="M2066,848c-46.9,0-85-56-85-125s38.1-125,85-125c46.9,0,85,56,85,125S2112.9,848,2066,848z"/>
			<g>
				<g>
					<g>
						<defs>
							<rect id="SVGID_23_" x="2005" y="634" width="121" height="177"/>
						</defs>
						<clipPath id="SVGID_24_">
							<use xlink:href="#SVGID_23_"  style="overflow:visible;"/>
						</clipPath>
						<g class="st17">
							<g class="st1">
								<path class="st5" d="M2091.2,731.3v10h-37.7c3.4,3.7,6,8,7.6,12.9h-9.1c-0.9-2.6-2.5-5.5-4.9-8.5c-2.4-3.1-5.2-5.2-8.4-6.3
									v-8.1L2091.2,731.3L2091.2,731.3z"/>
								<path class="st5" d="M2048.9,716.3h-9.3V682h7.3c2.8,2.8,6.8,5.7,12,8.6s10.7,5.2,16.6,6.7c5.9,1.5,11.1,2.3,15.7,2.3v9.7
									c-7.2-0.2-14.6-1.7-22.1-4.5s-14.2-6.6-20.1-11.3L2048.9,716.3L2048.9,716.3z"/>
							</g>
						</g>
					</g>
				</g>
			</g>
			<path class="st3" d="M2261.5,1175c-46.1,0-83.5-56.2-83.5-125.5s37.4-125.5,83.5-125.5s83.5,56.2,83.5,125.5
				S2307.6,1175,2261.5,1175z"/>
			<g>
				<g>
					<g>
						<defs>
							<rect id="SVGID_25_" x="2202" y="961" width="119" height="178"/>
						</defs>
						<clipPath id="SVGID_26_">
							<use xlink:href="#SVGID_25_"  style="overflow:visible;"/>
						</clipPath>
						<g class="st18">
							<g class="st1">
								<path class="st5" d="M2286.8,1058.3v10H2249c3.4,3.7,6,8,7.6,12.9h-9.1c-0.9-2.6-2.5-5.5-4.9-8.5c-2.4-3.1-5.2-5.2-8.4-6.3
									v-8.1H2286.8z"/>
								<path class="st5" d="M2274.7,1043.1l-1.1-9.7c2-0.2,3.4-0.9,4.4-1.9s1.4-2.3,1.4-4c0-2.1-1-3.8-2.9-5.3
									c-1.9-1.4-5.8-2.4-11.8-2.8c2.9,2.5,4.4,5.7,4.4,9.4c0,4.1-1.6,7.7-4.8,10.6c-3.2,3-7.3,4.5-12.4,4.5
									c-5.3,0-9.6-1.6-12.8-4.7s-4.9-7.2-4.9-12c0-5.3,2-9.6,6.1-13s10.8-5.1,20.2-5.1c9.6,0,16.4,1.8,20.7,5.3
									c4.2,3.5,6.3,8.2,6.3,13.8c0,4.1-1.1,7.4-3.3,9.9C2282.3,1040.8,2279,1042.4,2274.7,1043.1z M2252.8,1020.4
									c-3.2,0-5.7,0.7-7.5,2.2c-1.8,1.5-2.7,3.2-2.7,5.2c0,1.9,0.7,3.4,2.2,4.6s3.9,1.8,7.2,1.8c3.4,0,5.9-0.7,7.4-2
									c1.6-1.3,2.4-3,2.4-5c0-1.9-0.8-3.5-2.3-4.9S2255.8,1020.4,2252.8,1020.4z"/>
							</g>
						</g>
					</g>
				</g>
			</g>
			<path class="st6" d="M2261.5,848c-46.1,0-83.5-56-83.5-125s37.4-125,83.5-125s83.5,56,83.5,125S2307.6,848,2261.5,848z"/>
			<g>
				<g>
					<g>
						<defs>
							<rect id="SVGID_27_" x="2202" y="634" width="119" height="177"/>
						</defs>
						<clipPath id="SVGID_28_">
							<use xlink:href="#SVGID_27_"  style="overflow:visible;"/>
						</clipPath>
						<g class="st19">
							<g class="st1">
								<path class="st5" d="M2277.5,723.1h9.3v35.1c-3.5-0.4-6.8-1.5-10-3.4c-3.1-1.9-7.3-5.7-12.5-11.3c-4.2-4.5-7.1-7.3-8.6-8.3
									c-2.1-1.4-4.1-2.1-6.1-2.1c-2.2,0-4,0.6-5.2,1.8s-1.8,2.9-1.8,5s0.6,3.8,1.9,5c1.3,1.2,3.4,1.9,6.3,2.1l-1,10
									c-5.5-0.6-9.5-2.5-11.9-5.6s-3.6-7.1-3.6-11.8c0-5.2,1.4-9.2,4.2-12.2c2.8-2.9,6.2-4.4,10.4-4.4c2.4,0,4.6,0.4,6.7,1.3
									c2.1,0.8,4.4,2.2,6.7,4c1.5,1.2,3.8,3.4,6.7,6.6c2.9,3.2,4.8,5.2,5.8,6s1.9,1.5,2.8,2L2277.5,723.1L2277.5,723.1z"/>
								<path class="st5" d="M2234.3,699.4c0-5.1,1.8-9,5.4-11.9c4.3-3.4,11.4-5.1,21.3-5.1c9.9,0,17,1.7,21.3,5.1
									c3.6,2.8,5.3,6.8,5.3,11.8c0,5.1-2,9.2-5.9,12.3s-10.9,4.7-20.9,4.7c-9.8,0-16.9-1.7-21.2-5.1
									C2236.1,708.4,2234.3,704.4,2234.3,699.4z M2242.6,699.4c0,1.2,0.4,2.3,1.2,3.2c0.8,1,2.2,1.7,4.2,2.2c2.6,0.7,7,1,13.1,1
									s10.3-0.3,12.6-0.9c2.3-0.6,3.8-1.4,4.6-2.3c0.8-0.9,1.1-2,1.1-3.2s-0.4-2.3-1.2-3.2c-0.8-1-2.2-1.7-4.2-2.2
									c-2.6-0.7-6.9-1-13-1s-10.3,0.3-12.6,0.9c-2.3,0.6-3.8,1.4-4.6,2.3C2243,697.1,2242.6,698.2,2242.6,699.4z"/>
							</g>
						</g>
					</g>
				</g>
			</g>
			<path class="st6" d="M2458,1175c-46.9,0-85-56.2-85-125.5s38.1-125.5,85-125.5s85,56.2,85,125.5S2504.9,1175,2458,1175z"/>
			<g>
				<g>
					<g>
						<defs>
							<rect id="SVGID_29_" x="2397" y="961" width="122" height="178"/>
						</defs>
						<clipPath id="SVGID_30_">
							<use xlink:href="#SVGID_29_"  style="overflow:visible;"/>
						</clipPath>
						<g class="st20">
							<g class="st1">
								<path class="st5" d="M2474,1050.1h9.3v35.1c-3.5-0.4-6.8-1.5-10-3.4c-3.1-1.9-7.3-5.7-12.5-11.3c-4.2-4.5-7.1-7.3-8.6-8.3
									c-2.1-1.4-4.1-2.1-6.1-2.1c-2.2,0-4,0.6-5.2,1.8c-1.2,1.2-1.8,2.9-1.8,5s0.6,3.8,1.9,5c1.3,1.2,3.4,1.9,6.3,2.1l-1,10
									c-5.5-0.6-9.5-2.5-11.9-5.6s-3.6-7.1-3.6-11.8c0-5.2,1.4-9.2,4.2-12.2c2.8-2.9,6.2-4.4,10.4-4.4c2.4,0,4.6,0.4,6.7,1.3
									c2.1,0.8,4.4,2.2,6.7,4c1.5,1.2,3.8,3.4,6.7,6.6s4.8,5.2,5.8,6s1.9,1.5,2.8,2L2474,1050.1L2474,1050.1z"/>
								<path class="st5" d="M2474,1009.5h9.3v35.1c-3.5-0.4-6.8-1.5-10-3.4s-7.3-5.7-12.5-11.3c-4.2-4.5-7.1-7.3-8.6-8.3
									c-2.1-1.4-4.1-2.1-6.1-2.1c-2.2,0-4,0.6-5.2,1.8s-1.8,2.9-1.8,5s0.6,3.8,1.9,5c1.3,1.2,3.4,1.9,6.3,2.1l-1,10
									c-5.5-0.6-9.5-2.5-11.9-5.6s-3.6-7.1-3.6-11.8c0-5.2,1.4-9.2,4.2-12.2c2.8-2.9,6.2-4.4,10.4-4.4c2.4,0,4.6,0.4,6.7,1.3
									c2.1,0.8,4.4,2.2,6.7,4c1.5,1.2,3.8,3.4,6.7,6.6s4.8,5.2,5.8,6s1.9,1.5,2.8,2.1L2474,1009.5L2474,1009.5z"/>
							</g>
						</g>
					</g>
				</g>
			</g>
			<path class="st3" d="M2458,848c-46.9,0-85-56-85-125s38.1-125,85-125s85,56,85,125S2504.9,848,2458,848z"/>
			<g>
				<g>
					<g>
						<defs>
							<rect id="SVGID_31_" x="2397" y="634" width="122" height="177"/>
						</defs>
						<clipPath id="SVGID_32_">
							<use xlink:href="#SVGID_31_"  style="overflow:visible;"/>
						</clipPath>
						<g class="st21">
							<g class="st1">
								<path class="st5" d="M2474,723.1h9.3v35.1c-3.5-0.4-6.8-1.5-10-3.4c-3.1-1.9-7.3-5.7-12.5-11.3c-4.2-4.5-7.1-7.3-8.6-8.3
									c-2.1-1.4-4.1-2.1-6.1-2.1c-2.2,0-3.9,0.6-5.2,1.8c-1.2,1.2-1.8,2.9-1.8,5s0.6,3.8,1.9,5c1.3,1.2,3.3,1.9,6.3,2.1l-1,10
									c-5.5-0.6-9.5-2.5-11.9-5.6s-3.6-7.1-3.6-11.8c0-5.2,1.4-9.2,4.2-12.2c2.8-2.9,6.2-4.4,10.4-4.4c2.4,0,4.6,0.4,6.7,1.3
									c2.1,0.8,4.4,2.2,6.7,4c1.5,1.2,3.8,3.4,6.7,6.6c2.9,3.2,4.8,5.2,5.8,6s1.9,1.5,2.8,2L2474,723.1L2474,723.1z"/>
								<path class="st5" d="M2469.4,716.7l-1.2-9.7c2.5-0.3,4.4-1.1,5.7-2.5s2-3,2-4.9c0-2.1-0.8-3.8-2.4-5.2
									c-1.6-1.4-3.7-2.1-6.3-2.1c-2.5,0-4.5,0.7-6,2c-1.5,1.4-2.2,3-2.2,5c0,1.3,0.2,2.8,0.7,4.6l-8.2-1.1
									c0.1-2.7-0.5-4.8-1.8-6.2c-1.2-1.4-2.9-2.1-5-2.1c-1.8,0-3.2,0.5-4.2,1.6c-1,1-1.6,2.4-1.6,4.2c0,1.7,0.6,3.2,1.8,4.4
									s2.9,1.9,5.2,2.2l-1.6,9.2c-3.2-0.6-5.7-1.6-7.6-2.9c-1.9-1.3-3.4-3.1-4.5-5.4c-1.1-2.3-1.6-4.9-1.6-7.8
									c0-4.9,1.6-8.9,4.7-11.8c2.6-2.4,5.5-3.7,8.7-3.7c4.6,0,8.2,2.5,11,7.5c0.6-3,2.1-5.4,4.3-7.2s4.9-2.7,8.1-2.7
									c4.6,0,8.5,1.7,11.7,5c3.2,3.4,4.8,7.5,4.8,12.5c0,4.7-1.4,8.6-4.1,11.8C2477.4,714.4,2473.8,716.2,2469.4,716.7z"/>
							</g>
						</g>
					</g>
				</g>
			</g>
			<path class="st3" d="M2658,1175c-46.4,0-84-56.2-84-125.5s37.6-125.5,84-125.5s84,56.2,84,125.5S2704.4,1175,2658,1175z"/>
			<g>
				<g>
					<g>
						<defs>
							<rect id="SVGID_33_" x="2598" y="961" width="120" height="178"/>
						</defs>
						<clipPath id="SVGID_34_">
							<use xlink:href="#SVGID_33_"  style="overflow:visible;"/>
						</clipPath>
						<g class="st22">
							<g class="st1">
								<path class="st5" d="M2674.1,1050.1h9.3v35.1c-3.5-0.4-6.8-1.5-10-3.4c-3.1-1.9-7.3-5.7-12.5-11.3c-4.2-4.5-7.1-7.3-8.6-8.3
									c-2.1-1.4-4.1-2.1-6.1-2.1c-2.2,0-4,0.6-5.2,1.8c-1.2,1.2-1.8,2.9-1.8,5s0.6,3.8,1.9,5c1.3,1.2,3.4,1.9,6.3,2.1l-1,10
									c-5.5-0.6-9.5-2.5-11.9-5.6s-3.6-7.1-3.6-11.8c0-5.2,1.4-9.2,4.2-12.2c2.8-2.9,6.2-4.4,10.4-4.4c2.4,0,4.6,0.4,6.7,1.3
									s4.4,2.2,6.7,4c1.5,1.2,3.8,3.4,6.7,6.6s4.8,5.2,5.8,6s1.9,1.5,2.8,2L2674.1,1050.1L2674.1,1050.1z"/>
								<path class="st5" d="M2670,1043.2l-1-10c2.3-0.3,4-1.1,5.4-2.5s2-3,2-4.8c0-2.1-0.8-3.9-2.5-5.3c-1.7-1.4-4.3-2.2-7.7-2.2
									c-3.2,0-5.6,0.7-7.2,2.2c-1.6,1.4-2.4,3.3-2.4,5.6c0,2.9,1.3,5.5,3.8,7.7l-1.2,8.1l-27.2-5.1v-26.5h9.4v18.9l8.9,1.6
									c-1.1-2.2-1.7-4.5-1.7-6.8c0-4.4,1.6-8.2,4.8-11.3s7.4-4.6,12.6-4.6c4.3,0,8.1,1.2,11.5,3.7c4.6,3.4,6.9,8.1,6.9,14.2
									c0,4.8-1.3,8.8-3.9,11.8C2677.8,1040.7,2674.3,1042.6,2670,1043.2z"/>
							</g>
						</g>
					</g>
				</g>
			</g>
			<path class="st6" d="M2658,848c-46.4,0-84-56-84-125s37.6-125,84-125s84,56,84,125S2704.4,848,2658,848z"/>
			<g>
				<g>
					<g>
						<defs>
							<rect id="SVGID_35_" x="2598" y="634" width="120" height="177"/>
						</defs>
						<clipPath id="SVGID_36_">
							<use xlink:href="#SVGID_35_"  style="overflow:visible;"/>
						</clipPath>
						<g class="st23">
							<g class="st1">
								<path class="st5" d="M2674.1,723.1h9.3v35.1c-3.5-0.4-6.8-1.5-10-3.4c-3.1-1.9-7.3-5.7-12.5-11.3c-4.2-4.5-7.1-7.3-8.6-8.3
									c-2.1-1.4-4.1-2.1-6.1-2.1c-2.2,0-4,0.6-5.2,1.8s-1.8,2.9-1.8,5s0.6,3.8,1.9,5c1.3,1.2,3.4,1.9,6.3,2.1l-1,10
									c-5.5-0.6-9.5-2.5-11.9-5.6s-3.6-7.1-3.6-11.8c0-5.2,1.4-9.2,4.2-12.2c2.8-2.9,6.2-4.4,10.4-4.4c2.4,0,4.6,0.4,6.7,1.3
									c2.1,0.8,4.4,2.2,6.7,4c1.5,1.2,3.8,3.4,6.7,6.6c2.9,3.2,4.8,5.2,5.8,6s1.9,1.5,2.8,2L2674.1,723.1L2674.1,723.1z"/>
								<path class="st5" d="M2643.9,682.4l1.1,9.7c-2,0.2-3.5,0.9-4.4,1.9c-1,1-1.4,2.3-1.4,3.9c0,2.1,0.9,3.9,2.9,5.4
									c1.9,1.5,5.9,2.4,11.9,2.8c-2.9-2.5-4.4-5.6-4.4-9.3c0-4.2,1.6-7.8,4.8-10.7c3.2-3,7.3-4.5,12.3-4.5c5.3,0,9.6,1.6,12.9,4.7
									c3.2,3.1,4.8,7.2,4.8,12.1c0,5.3-2,9.6-6.1,13s-10.8,5.1-20.2,5.1c-9.6,0-16.5-1.8-20.7-5.3s-6.3-8.1-6.3-13.8
									c0-4,1.1-7.3,3.3-9.9C2636.5,684.7,2639.7,683.1,2643.9,682.4z M2665.8,705.1c3.3,0,5.8-0.7,7.5-2.2
									c1.8-1.5,2.7-3.2,2.7-5.1c0-1.9-0.7-3.4-2.2-4.6c-1.4-1.2-3.8-1.9-7.1-1.9c-3.4,0-5.9,0.7-7.5,2s-2.4,3-2.4,5
									c0,1.9,0.8,3.6,2.3,4.9C2660.6,704.4,2662.8,705.1,2665.8,705.1z"/>
							</g>
						</g>
					</g>
				</g>
			</g>
			<path class="st6" d="M2853.5,1175c-46.7,0-84.5-56.2-84.5-125.5s37.8-125.5,84.5-125.5s84.5,56.2,84.5,125.5
				S2900.2,1175,2853.5,1175z"/>
			<g>
				<g>
					<g>
						<defs>
							<rect id="SVGID_37_" x="2794" y="961" width="119" height="178"/>
						</defs>
						<clipPath id="SVGID_38_">
							<use xlink:href="#SVGID_37_"  style="overflow:visible;"/>
						</clipPath>
						<g class="st24">
							<g class="st1">
								<path class="st5" d="M2869.4,1050.1h9.3v35.1c-3.5-0.4-6.8-1.5-10-3.4c-3.1-1.9-7.3-5.7-12.5-11.3c-4.2-4.5-7.1-7.3-8.6-8.3
									c-2.1-1.4-4.1-2.1-6.1-2.1c-2.2,0-4,0.6-5.2,1.8c-1.2,1.2-1.8,2.9-1.8,5s0.6,3.8,1.9,5c1.3,1.2,3.4,1.9,6.3,2.1l-1,10
									c-5.5-0.6-9.5-2.5-11.9-5.6s-3.6-7.1-3.6-11.8c0-5.2,1.4-9.2,4.2-12.2c2.8-2.9,6.2-4.4,10.4-4.4c2.4,0,4.6,0.4,6.7,1.3
									c2.1,0.8,4.4,2.2,6.7,4c1.5,1.2,3.8,3.4,6.7,6.6s4.8,5.2,5.8,6s1.9,1.5,2.8,2L2869.4,1050.1L2869.4,1050.1z"/>
								<path class="st5" d="M2850.6,1034.7c-1.1,2.6-2.6,4.5-4.5,5.7s-4,1.8-6.3,1.8c-3.9,0-7.1-1.4-9.7-4.1s-3.8-6.6-3.8-11.6
									s1.3-8.8,3.8-11.6s5.8-4.1,9.7-4.1c2.4,0,4.6,0.6,6.5,1.9c1.9,1.3,3.3,3,4.3,5.3c1.2-2.9,2.9-5.1,5.1-6.6
									c2.2-1.5,4.8-2.3,7.7-2.3c4.8,0,8.7,1.5,11.8,4.6c3,3.1,4.5,7.2,4.5,12.3c0,4.8-1.2,8.7-3.7,11.9c-2.9,3.7-7,5.6-12.1,5.6
									c-2.8,0-5.4-0.7-7.8-2.1C2853.7,1039.9,2851.8,1037.7,2850.6,1034.7z M2840.5,1032.6c2,0,3.6-0.6,4.7-1.7
									c1.1-1.1,1.7-2.6,1.7-4.5s-0.6-3.4-1.7-4.6c-1.1-1.1-2.7-1.7-4.7-1.7c-1.9,0-3.4,0.6-4.5,1.7c-1.1,1.1-1.7,2.6-1.7,4.5
									s0.6,3.5,1.7,4.6S2838.6,1032.6,2840.5,1032.6z M2862.9,1033.6c2.8,0,4.9-0.7,6.5-2.1c1.5-1.4,2.3-3.2,2.3-5.3
									c0-2.1-0.7-3.8-2.2-5.1c-1.5-1.4-3.6-2-6.4-2c-2.4,0-4.4,0.7-5.9,2.1s-2.2,3.1-2.2,5.2c0,2.4,0.8,4.3,2.5,5.5
									C2859.1,1033,2860.9,1033.6,2862.9,1033.6z"/>
							</g>
						</g>
					</g>
				</g>
			</g>
			<path class="st6" d="M2853.5,848c-46.7,0-84.5-56-84.5-125s37.8-125,84.5-125s84.5,56,84.5,125S2900.2,848,2853.5,848z"/>
			<g>
				<g>
					<g>
						<defs>
							<rect id="SVGID_39_" x="2794" y="634" width="119" height="177"/>
						</defs>
						<clipPath id="SVGID_40_">
							<use xlink:href="#SVGID_39_"  style="overflow:visible;"/>
						</clipPath>
						<g class="st25">
							<g class="st1">
								<path class="st5" d="M2869.4,723.1h9.3v35.1c-3.5-0.4-6.8-1.5-10-3.4c-3.1-1.9-7.3-5.7-12.5-11.3c-4.2-4.5-7.1-7.3-8.6-8.3
									c-2.1-1.4-4.1-2.1-6.1-2.1c-2.2,0-4,0.6-5.2,1.8s-1.8,2.9-1.8,5s0.6,3.8,1.9,5c1.3,1.2,3.4,1.9,6.3,2.1l-1,10
									c-5.5-0.6-9.5-2.5-11.9-5.6s-3.6-7.1-3.6-11.8c0-5.2,1.4-9.2,4.2-12.2c2.8-2.9,6.2-4.4,10.4-4.4c2.4,0,4.6,0.4,6.7,1.3
									c2.1,0.8,4.4,2.2,6.7,4c1.5,1.2,3.8,3.4,6.7,6.6c2.9,3.2,4.8,5.2,5.8,6s1.9,1.5,2.8,2L2869.4,723.1L2869.4,723.1z"/>
								<path class="st5" d="M2866.7,716.1l-1.1-9.7c2-0.2,3.4-0.9,4.4-1.9s1.4-2.3,1.4-4c0-2.1-1-3.8-2.9-5.3
									c-1.9-1.4-5.8-2.4-11.8-2.8c2.9,2.5,4.4,5.7,4.4,9.4c0,4.1-1.6,7.7-4.8,10.6c-3.2,3-7.3,4.5-12.4,4.5
									c-5.3,0-9.6-1.6-12.8-4.7c-3.2-3.1-4.9-7.2-4.9-12c0-5.3,2-9.6,6.1-13s10.8-5.1,20.2-5.1c9.6,0,16.4,1.8,20.7,5.3
									c4.2,3.5,6.3,8.2,6.3,13.8c0,4.1-1.1,7.4-3.3,9.9C2874.2,713.8,2871,715.4,2866.7,716.1z M2844.8,693.4
									c-3.2,0-5.7,0.7-7.5,2.2s-2.7,3.2-2.7,5.2c0,1.9,0.7,3.4,2.2,4.6c1.5,1.2,3.9,1.8,7.2,1.8c3.4,0,5.9-0.7,7.4-2
									c1.6-1.3,2.4-3,2.4-5c0-1.9-0.8-3.5-2.3-4.9C2850,694.1,2847.7,693.4,2844.8,693.4z"/>
							</g>
						</g>
					</g>
				</g>
			</g>
			<path class="st6" d="M3048.5,1175c-46.7,0-84.5-56.2-84.5-125.5s37.8-125.5,84.5-125.5s84.5,56.2,84.5,125.5
				S3095.2,1175,3048.5,1175z"/>
			<g>
				<g>
					<g>
						<defs>
							<rect id="SVGID_41_" x="2989" y="961" width="120" height="178"/>
						</defs>
						<clipPath id="SVGID_42_">
							<use xlink:href="#SVGID_41_"  style="overflow:visible;"/>
						</clipPath>
						<g class="st26">
							<g class="st1">
								<path class="st5" d="M3060.2,1084.3l-1.2-9.7c2.5-0.3,4.4-1.1,5.7-2.5s2-3,2-4.9c0-2.1-0.8-3.8-2.4-5.2
									c-1.6-1.4-3.7-2.1-6.3-2.1c-2.5,0-4.5,0.7-6,2s-2.2,3-2.2,5c0,1.3,0.2,2.8,0.8,4.6l-8.2-1.1c0.1-2.7-0.5-4.8-1.8-6.2
									s-2.9-2.1-5-2.1c-1.8,0-3.2,0.5-4.2,1.6c-1,1-1.6,2.4-1.6,4.2c0,1.7,0.6,3.2,1.8,4.4c1.2,1.2,2.9,1.9,5.2,2.2l-1.6,9.2
									c-3.2-0.6-5.7-1.6-7.6-2.9c-1.9-1.3-3.4-3.1-4.5-5.4s-1.6-4.9-1.6-7.8c0-4.9,1.6-8.9,4.7-11.8c2.6-2.4,5.5-3.7,8.7-3.7
									c4.6,0,8.2,2.5,11,7.5c0.6-3,2.1-5.4,4.3-7.2c2.2-1.8,4.9-2.7,8.1-2.7c4.6,0,8.5,1.7,11.7,5c3.2,3.4,4.8,7.5,4.8,12.5
									c0,4.7-1.4,8.7-4.1,11.8C3068.1,1082,3064.6,1083.8,3060.2,1084.3z"/>
								<path class="st5" d="M3074.1,1017.7v10h-37.7c3.4,3.7,6,8,7.6,12.9h-9.1c-0.9-2.6-2.5-5.5-4.9-8.5c-2.4-3.1-5.2-5.2-8.4-6.3
									v-8.1L3074.1,1017.7L3074.1,1017.7z"/>
							</g>
						</g>
					</g>
				</g>
			</g>
			<path class="st3" d="M3048.5,848c-46.7,0-84.5-56-84.5-125s37.8-125,84.5-125s84.5,56,84.5,125S3095.2,848,3048.5,848z"/>
			<g>
				<g>
					<g>
						<defs>
							<rect id="SVGID_43_" x="2989" y="634" width="120" height="177"/>
						</defs>
						<clipPath id="SVGID_44_">
							<use xlink:href="#SVGID_43_"  style="overflow:visible;"/>
						</clipPath>
						<g class="st27">
							<g class="st1">
								<path class="st5" d="M3060.2,757.3l-1.2-9.7c2.5-0.3,4.4-1.1,5.7-2.5s2-3,2-4.9c0-2.1-0.8-3.8-2.4-5.2
									c-1.6-1.4-3.7-2.1-6.3-2.1c-2.5,0-4.5,0.7-6,2s-2.2,3-2.2,5c0,1.3,0.2,2.8,0.8,4.6l-8.2-1.1c0.1-2.7-0.5-4.8-1.8-6.2
									s-2.9-2.1-5-2.1c-1.8,0-3.2,0.5-4.2,1.6c-1,1-1.6,2.4-1.6,4.2c0,1.7,0.6,3.2,1.8,4.4s2.9,1.9,5.2,2.2l-1.6,9.2
									c-3.2-0.6-5.7-1.6-7.6-2.9c-1.9-1.3-3.4-3.1-4.5-5.4c-1.1-2.3-1.6-4.9-1.6-7.8c0-4.9,1.6-8.9,4.7-11.8
									c2.6-2.4,5.5-3.7,8.7-3.7c4.6,0,8.2,2.5,11,7.5c0.6-3,2.1-5.4,4.3-7.2s4.9-2.7,8.1-2.7c4.6,0,8.5,1.7,11.7,5
									c3.2,3.4,4.8,7.5,4.8,12.5c0,4.7-1.4,8.6-4.1,11.8C3068.1,755,3064.6,756.8,3060.2,757.3z"/>
								<path class="st5" d="M3064.8,682.5h9.3v35.1c-3.5-0.4-6.8-1.5-10-3.4c-3.1-1.9-7.3-5.7-12.5-11.3c-4.2-4.5-7.1-7.3-8.6-8.3
									c-2.1-1.4-4.1-2.1-6.1-2.1c-2.2,0-4,0.6-5.2,1.8s-1.8,2.9-1.8,5s0.6,3.8,1.9,5c1.3,1.2,3.4,1.9,6.3,2.1l-1,10
									c-5.5-0.6-9.5-2.5-11.9-5.6s-3.6-7.1-3.6-11.8c0-5.2,1.4-9.2,4.2-12.2c2.8-2.9,6.2-4.4,10.4-4.4c2.4,0,4.6,0.4,6.7,1.3
									c2.1,0.8,4.4,2.2,6.7,4c1.5,1.2,3.8,3.4,6.7,6.6c2.9,3.2,4.8,5.2,5.8,6s1.9,1.5,2.8,2L3064.8,682.5L3064.8,682.5z"/>
							</g>
						</g>
					</g>
				</g>
			</g>
			<path class="st3" d="M3244.5,1175c-46.7,0-84.5-56.2-84.5-125.5s37.8-125.5,84.5-125.5s84.5,56.2,84.5,125.5
				S3291.2,1175,3244.5,1175z"/>
			<g>
				<g>
					<g>
						<defs>
							<rect id="SVGID_45_" x="3184" y="961" width="120" height="178"/>
						</defs>
						<clipPath id="SVGID_46_">
							<use xlink:href="#SVGID_45_"  style="overflow:visible;"/>
						</clipPath>
						<g class="st28">
							<g class="st1">
								<path class="st5" d="M3255.5,1084.3l-1.2-9.7c2.5-0.3,4.4-1.1,5.7-2.5s2-3,2-4.9c0-2.1-0.8-3.8-2.4-5.2
									c-1.6-1.4-3.7-2.1-6.3-2.1c-2.5,0-4.5,0.7-6,2c-1.5,1.4-2.2,3-2.2,5c0,1.3,0.2,2.8,0.7,4.6l-8.2-1.1
									c0.1-2.7-0.5-4.8-1.8-6.2c-1.2-1.4-2.9-2.1-5-2.1c-1.8,0-3.2,0.5-4.2,1.6c-1,1-1.6,2.4-1.6,4.2c0,1.7,0.6,3.2,1.8,4.4
									c1.2,1.2,2.9,1.9,5.2,2.2l-1.6,9.2c-3.2-0.6-5.7-1.6-7.6-2.9c-1.9-1.3-3.4-3.1-4.5-5.4s-1.6-4.9-1.6-7.8
									c0-4.9,1.6-8.9,4.7-11.8c2.6-2.4,5.5-3.7,8.7-3.7c4.6,0,8.2,2.5,11,7.5c0.6-3,2.1-5.4,4.3-7.2c2.2-1.8,4.9-2.7,8.1-2.7
									c4.6,0,8.5,1.7,11.7,5c3.2,3.4,4.8,7.5,4.8,12.5c0,4.7-1.4,8.7-4.1,11.8C3263.5,1082,3259.9,1083.8,3255.5,1084.3z"/>
								<path class="st5" d="M3269.4,1023.7h-10.5v21.4h-8.8l-33.2-22.7v-8.4h33.1v-6.5h8.8v6.5h10.5L3269.4,1023.7L3269.4,1023.7z
									 M3250.1,1023.7h-17.9l17.9,12V1023.7z"/>
							</g>
						</g>
					</g>
				</g>
			</g>
			<path class="st6" d="M3244.5,848c-46.7,0-84.5-56-84.5-125s37.8-125,84.5-125s84.5,56,84.5,125S3291.2,848,3244.5,848z"/>
			<g>
				<g>
					<g>
						<defs>
							<rect id="SVGID_47_" x="3184" y="634" width="120" height="177"/>
						</defs>
						<clipPath id="SVGID_48_">
							<use xlink:href="#SVGID_47_"  style="overflow:visible;"/>
						</clipPath>
						<g class="st29">
							<g class="st1">
								<path class="st5" d="M3255.5,757.3l-1.2-9.7c2.5-0.3,4.4-1.1,5.7-2.5s2-3,2-4.9c0-2.1-0.8-3.8-2.4-5.2
									c-1.6-1.4-3.7-2.1-6.3-2.1c-2.5,0-4.5,0.7-6,2c-1.5,1.4-2.2,3-2.2,5c0,1.3,0.2,2.8,0.7,4.6l-8.2-1.1
									c0.1-2.7-0.5-4.8-1.8-6.2c-1.2-1.4-2.9-2.1-5-2.1c-1.8,0-3.2,0.5-4.2,1.6c-1,1-1.6,2.4-1.6,4.2c0,1.7,0.6,3.2,1.8,4.4
									s2.9,1.9,5.2,2.2l-1.6,9.2c-3.2-0.6-5.7-1.6-7.6-2.9c-1.9-1.3-3.4-3.1-4.5-5.4c-1.1-2.3-1.6-4.9-1.6-7.8
									c0-4.9,1.6-8.9,4.7-11.8c2.6-2.4,5.5-3.7,8.7-3.7c4.6,0,8.2,2.5,11,7.5c0.6-3,2.1-5.4,4.3-7.2s4.9-2.7,8.1-2.7
									c4.6,0,8.5,1.7,11.7,5c3.2,3.4,4.8,7.5,4.8,12.5c0,4.7-1.4,8.6-4.1,11.8C3263.5,755,3259.9,756.8,3255.5,757.3z"/>
								<path class="st5" d="M3256,716.2l-1-10c2.3-0.3,4-1.1,5.4-2.5c1.3-1.4,2-3,2-4.8c0-2.1-0.8-3.9-2.5-5.3
									c-1.7-1.4-4.3-2.2-7.7-2.2c-3.2,0-5.6,0.7-7.2,2.2c-1.6,1.4-2.4,3.3-2.4,5.6c0,2.9,1.3,5.5,3.8,7.7l-1.2,8.1l-27.2-5.1
									v-26.5h9.4v18.9l8.9,1.6c-1.1-2.2-1.7-4.5-1.7-6.8c0-4.4,1.6-8.2,4.8-11.3s7.4-4.6,12.6-4.6c4.3,0,8.1,1.2,11.5,3.7
									c4.6,3.4,6.9,8.1,6.9,14.2c0,4.8-1.3,8.8-3.9,11.8C3263.8,713.7,3260.3,715.6,3256,716.2z"/>
							</g>
						</g>
					</g>
				</g>
			</g>
			<path class="st3" d="M1083.5,521c-46.7,0-84.5-56.4-84.5-126s37.8-126,84.5-126s84.5,56.4,84.5,126S1130.2,521,1083.5,521z"/>
			<g>
				<g>
					<g>
						<defs>
							<rect id="SVGID_49_" x="1023" y="305" width="121" height="179"/>
						</defs>
						<clipPath id="SVGID_50_">
							<use xlink:href="#SVGID_49_"  style="overflow:visible;"/>
						</clipPath>
						<g class="st30">
							<g class="st1">
								<path class="st5" d="M1095.1,410.3l-1.2-9.7c2.5-0.3,4.4-1.1,5.7-2.5c1.3-1.4,2-3,2-4.9c0-2.1-0.8-3.8-2.4-5.2
									c-1.6-1.4-3.7-2.1-6.3-2.1c-2.5,0-4.5,0.7-6,2c-1.5,1.4-2.2,3-2.2,5c0,1.3,0.2,2.8,0.7,4.6l-8.2-1.1
									c0.1-2.7-0.5-4.8-1.8-6.2c-1.2-1.4-2.9-2.1-5-2.1c-1.8,0-3.2,0.5-4.2,1.6c-1,1-1.6,2.4-1.6,4.2c0,1.7,0.6,3.2,1.8,4.4
									c1.2,1.2,2.9,1.9,5.2,2.2l-1.6,9.2c-3.2-0.6-5.7-1.6-7.6-2.9s-3.4-3.1-4.5-5.4s-1.6-4.9-1.6-7.8c0-4.9,1.6-8.9,4.7-11.8
									c2.6-2.4,5.5-3.7,8.7-3.7c4.6,0,8.2,2.5,11,7.5c0.6-3,2.1-5.4,4.3-7.2c2.2-1.8,4.9-2.7,8.1-2.7c4.6,0,8.5,1.7,11.7,5
									c3.2,3.4,4.8,7.5,4.8,12.5c0,4.7-1.4,8.6-4.1,11.8C1103.1,408,1099.5,409.8,1095.1,410.3z"/>
							</g>
						</g>
					</g>
				</g>
			</g>
			<path class="st6" d="M1280.5,521c-47.2,0-85.5-56.4-85.5-126s38.3-126,85.5-126s85.5,56.4,85.5,126S1327.7,521,1280.5,521z"/>
			<g>
				<g>
					<g>
						<defs>
							<rect id="SVGID_51_" x="1220" y="305" width="122" height="179"/>
						</defs>
						<clipPath id="SVGID_52_">
							<use xlink:href="#SVGID_51_"  style="overflow:visible;"/>
						</clipPath>
						<g class="st31">
							<g class="st1">
								<path class="st5" d="M1266.6,376l1.1,9.7c-2,0.2-3.5,0.9-4.4,1.9s-1.4,2.3-1.4,3.9c0,2.1,1,3.9,2.9,5.4s5.9,2.4,11.9,2.8
									c-2.9-2.5-4.4-5.6-4.4-9.3c0-4.2,1.6-7.8,4.8-10.7c3.2-3,7.3-4.5,12.3-4.5c5.3,0,9.6,1.6,12.9,4.7c3.2,3.1,4.8,7.2,4.8,12.1
									c0,5.3-2,9.6-6.1,13s-10.8,5.1-20.2,5.1c-9.6,0-16.5-1.8-20.7-5.3s-6.3-8.1-6.3-13.8c0-4,1.1-7.3,3.3-9.9
									C1259.1,378.3,1262.3,376.7,1266.6,376z M1288.4,398.7c3.3,0,5.8-0.7,7.5-2.2s2.7-3.2,2.7-5.1s-0.7-3.4-2.2-4.6
									c-1.4-1.2-3.8-1.9-7.1-1.9c-3.4,0-5.9,0.7-7.5,2s-2.4,3-2.4,5c0,1.9,0.8,3.6,2.3,4.9C1283.2,398,1285.5,398.7,1288.4,398.7z
									"/>
							</g>
						</g>
					</g>
				</g>
			</g>
			<path class="st3" d="M1477.5,521c-46.7,0-84.5-56.4-84.5-126s37.8-126,84.5-126s84.5,56.4,84.5,126S1524.2,521,1477.5,521z"/>
			<g>
				<g>
					<g>
						<defs>
							<rect id="SVGID_53_" x="1417" y="305" width="121" height="179"/>
						</defs>
						<clipPath id="SVGID_54_">
							<use xlink:href="#SVGID_53_"  style="overflow:visible;"/>
						</clipPath>
						<g class="st32">
							<g class="st1">
								<path class="st5" d="M1490.4,409.7l-1.1-9.7c2-0.2,3.4-0.9,4.4-1.9s1.4-2.3,1.4-4c0-2.1-1-3.8-2.9-5.3
									c-1.9-1.4-5.8-2.4-11.8-2.8c2.9,2.5,4.4,5.7,4.4,9.4c0,4.1-1.6,7.7-4.8,10.6c-3.2,3-7.3,4.5-12.4,4.5
									c-5.3,0-9.6-1.6-12.8-4.7c-3.2-3.1-4.9-7.2-4.9-12c0-5.3,2-9.6,6.1-13s10.8-5.1,20.2-5.1c9.6,0,16.4,1.8,20.7,5.3
									c4.2,3.5,6.3,8.2,6.3,13.8c0,4.1-1.1,7.4-3.3,9.9C1498,407.4,1494.7,409,1490.4,409.7z M1468.5,387c-3.2,0-5.7,0.7-7.5,2.2
									s-2.7,3.2-2.7,5.2c0,1.9,0.7,3.4,2.2,4.6s3.9,1.8,7.2,1.8c3.4,0,5.9-0.7,7.4-2c1.6-1.3,2.4-3,2.4-5c0-1.9-0.8-3.5-2.3-4.9
									C1473.7,387.7,1471.5,387,1468.5,387z"/>
							</g>
						</g>
					</g>
				</g>
			</g>
			<path class="st3" d="M1671.5,521c-46.1,0-83.5-56.4-83.5-126s37.4-126,83.5-126s83.5,56.4,83.5,126S1717.6,521,1671.5,521z"/>
			<g>
				<g>
					<g>
						<defs>
							<rect id="SVGID_55_" x="1612" y="305" width="119" height="179"/>
						</defs>
						<clipPath id="SVGID_56_">
							<use xlink:href="#SVGID_55_"  style="overflow:visible;"/>
						</clipPath>
						<g class="st33">
							<g class="st1">
								<path class="st5" d="M1696.5,403.3v10h-37.7c3.4,3.7,6,8,7.6,12.9h-9.1c-0.9-2.6-2.5-5.5-4.9-8.5c-2.4-3.1-5.2-5.2-8.4-6.3
									v-8.1H1696.5z"/>
								<path class="st5" d="M1687.2,354.5h9.3v35.1c-3.5-0.4-6.8-1.5-10-3.4c-3.1-1.9-7.3-5.7-12.5-11.3c-4.2-4.5-7.1-7.3-8.6-8.3
									c-2.1-1.4-4.1-2.1-6.1-2.1c-2.2,0-4,0.6-5.2,1.8c-1.2,1.2-1.8,2.9-1.8,5s0.6,3.8,1.9,5s3.4,1.9,6.3,2.1l-1,10
									c-5.5-0.6-9.5-2.5-11.9-5.6s-3.6-7.1-3.6-11.8c0-5.2,1.4-9.2,4.2-12.2c2.8-2.9,6.2-4.4,10.4-4.4c2.4,0,4.6,0.4,6.7,1.3
									c2.1,0.8,4.4,2.2,6.7,4c1.5,1.2,3.8,3.4,6.7,6.6c2.9,3.2,4.8,5.2,5.8,6s1.9,1.5,2.8,2v-19.8L1687.2,354.5L1687.2,354.5z"/>
							</g>
						</g>
					</g>
				</g>
			</g>
			<path class="st6" d="M1872.5,521c-46.7,0-84.5-56.4-84.5-126s37.8-126,84.5-126s84.5,56.4,84.5,126S1919.2,521,1872.5,521z"/>
			<g>
				<g>
					<g>
						<defs>
							<rect id="SVGID_57_" x="1812" y="305" width="120" height="179"/>
						</defs>
						<clipPath id="SVGID_58_">
							<use xlink:href="#SVGID_57_"  style="overflow:visible;"/>
						</clipPath>
						<g class="st34">
							<g class="st1">
								<path class="st5" d="M1897.4,403.3v10h-37.7c3.4,3.7,6,8,7.6,12.9h-9.1c-0.9-2.6-2.5-5.5-4.9-8.5c-2.4-3.1-5.2-5.2-8.4-6.3
									v-8.1H1897.4z"/>
								<path class="st5" d="M1883.9,388.2l-1-10c2.3-0.3,4-1.1,5.4-2.5c1.3-1.4,2-3,2-4.8c0-2.1-0.8-3.9-2.5-5.3s-4.3-2.2-7.7-2.2
									c-3.2,0-5.6,0.7-7.2,2.2c-1.6,1.4-2.4,3.3-2.4,5.6c0,2.9,1.3,5.5,3.8,7.7l-1.2,8.1l-27.2-5.1v-26.5h9.4v18.9l8.9,1.6
									c-1.1-2.2-1.7-4.5-1.7-6.8c0-4.4,1.6-8.2,4.8-11.3c3.2-3.1,7.4-4.6,12.6-4.6c4.3,0,8.1,1.2,11.5,3.7
									c4.6,3.4,6.9,8.1,6.9,14.2c0,4.8-1.3,8.8-3.9,11.8C1891.8,385.7,1888.3,387.6,1883.9,388.2z"/>
							</g>
						</g>
					</g>
				</g>
			</g>
			<path class="st3" d="M2067.5,521c-46.1,0-83.5-56.4-83.5-126s37.4-126,83.5-126c46.1,0,83.5,56.4,83.5,126S2113.6,521,2067.5,521
				z"/>
			<g>
				<g>
					<g>
						<defs>
							<rect id="SVGID_59_" x="2008" y="305" width="119" height="179"/>
						</defs>
						<clipPath id="SVGID_60_">
							<use xlink:href="#SVGID_59_"  style="overflow:visible;"/>
						</clipPath>
						<g class="st35">
							<g class="st1">
								<path class="st5" d="M2092.4,403.3v10h-37.7c3.4,3.7,6,8,7.6,12.9h-9.1c-0.9-2.6-2.5-5.5-4.9-8.5c-2.4-3.1-5.2-5.2-8.4-6.3
									v-8.1H2092.4z"/>
								<path class="st5" d="M2064.2,379.7c-1.1,2.6-2.6,4.5-4.5,5.6c-1.9,1.2-4,1.8-6.3,1.8c-3.9,0-7.1-1.4-9.7-4.1
									c-2.5-2.7-3.8-6.6-3.8-11.6s1.3-8.8,3.8-11.6c2.5-2.7,5.8-4.1,9.7-4.1c2.4,0,4.6,0.6,6.5,1.9s3.3,3,4.3,5.3
									c1.2-2.9,2.9-5.1,5.1-6.6c2.2-1.5,4.8-2.3,7.7-2.3c4.8,0,8.7,1.5,11.8,4.6c3,3.1,4.5,7.2,4.5,12.3c0,4.8-1.2,8.7-3.7,11.9
									c-2.9,3.7-7,5.6-12.1,5.6c-2.8,0-5.4-0.7-7.8-2.1C2067.3,384.9,2065.5,382.7,2064.2,379.7z M2054.1,377.6
									c2,0,3.6-0.6,4.7-1.7c1.1-1.1,1.7-2.6,1.7-4.5s-0.6-3.4-1.7-4.6c-1.1-1.1-2.7-1.7-4.7-1.7c-1.9,0-3.4,0.6-4.5,1.7
									s-1.7,2.6-1.7,4.5s0.6,3.5,1.7,4.6S2052.3,377.6,2054.1,377.6z M2076.5,378.6c2.8,0,4.9-0.7,6.5-2.1
									c1.5-1.4,2.3-3.2,2.3-5.3c0-2.1-0.7-3.8-2.2-5.1s-3.6-2-6.4-2c-2.4,0-4.4,0.7-5.9,2.1s-2.2,3.1-2.2,5.2
									c0,2.4,0.8,4.3,2.5,5.5C2072.7,378,2074.5,378.6,2076.5,378.6z"/>
							</g>
						</g>
					</g>
				</g>
			</g>
			<path class="st3" d="M2261.5,521c-46.1,0-83.5-56.4-83.5-126s37.4-126,83.5-126s83.5,56.4,83.5,126S2307.6,521,2261.5,521z"/>
			<g>
				<g>
					<g>
						<defs>
							<rect id="SVGID_61_" x="2202" y="305" width="119" height="179"/>
						</defs>
						<clipPath id="SVGID_62_">
							<use xlink:href="#SVGID_61_"  style="overflow:visible;"/>
						</clipPath>
						<g class="st36">
							<g class="st1">
								<path class="st5" d="M2277.8,395.1h9.3v35.1c-3.5-0.4-6.8-1.5-10-3.4c-3.1-1.9-7.3-5.7-12.5-11.3c-4.2-4.5-7.1-7.3-8.6-8.3
									c-2.1-1.4-4.1-2.1-6.1-2.1c-2.2,0-4,0.6-5.2,1.8c-1.2,1.2-1.8,2.9-1.8,5s0.6,3.8,1.9,5c1.3,1.2,3.4,1.9,6.3,2.1l-1,10
									c-5.5-0.6-9.5-2.5-11.9-5.6s-3.6-7.1-3.6-11.8c0-5.2,1.4-9.2,4.2-12.2c2.8-2.9,6.2-4.4,10.4-4.4c2.4,0,4.6,0.4,6.7,1.3
									c2.1,0.8,4.4,2.2,6.7,4c1.5,1.2,3.8,3.4,6.7,6.6s4.8,5.2,5.8,6s1.9,1.5,2.8,2L2277.8,395.1L2277.8,395.1z"/>
								<path class="st5" d="M2287.1,362.7v10h-37.7c3.4,3.7,6,8,7.6,12.9h-9.1c-0.9-2.6-2.5-5.5-4.9-8.5c-2.4-3.1-5.2-5.2-8.4-6.3
									v-8.1H2287.1z"/>
							</g>
						</g>
					</g>
				</g>
			</g>
			<path class="st6" d="M2457.5,521c-47.2,0-85.5-56.4-85.5-126s38.3-126,85.5-126s85.5,56.4,85.5,126S2504.7,521,2457.5,521z"/>
			<g>
				<g>
					<g>
						<defs>
							<rect id="SVGID_63_" x="2396" y="305" width="123" height="179"/>
						</defs>
						<clipPath id="SVGID_64_">
							<use xlink:href="#SVGID_63_"  style="overflow:visible;"/>
						</clipPath>
						<g class="st37">
							<g class="st1">
								<path class="st5" d="M2473.3,395.1h9.3v35.1c-3.5-0.4-6.8-1.5-10-3.4c-3.1-1.9-7.3-5.7-12.5-11.3c-4.2-4.5-7.1-7.3-8.6-8.3
									c-2.1-1.4-4.1-2.1-6.1-2.1c-2.2,0-4,0.6-5.2,1.8c-1.2,1.2-1.8,2.9-1.8,5s0.6,3.8,1.9,5c1.3,1.2,3.4,1.9,6.3,2.1l-1,10
									c-5.5-0.6-9.5-2.5-11.9-5.6s-3.6-7.1-3.6-11.8c0-5.2,1.4-9.2,4.2-12.2c2.8-2.9,6.2-4.4,10.4-4.4c2.4,0,4.6,0.4,6.7,1.3
									c2.1,0.8,4.4,2.2,6.7,4c1.5,1.2,3.8,3.4,6.7,6.6s4.8,5.2,5.8,6s1.9,1.5,2.8,2L2473.3,395.1L2473.3,395.1z"/>
								<path class="st5" d="M2482.6,368.7h-10.5V390h-8.8l-33.2-22.7V359h33.1v-6.5h8.8v6.5h10.5L2482.6,368.7L2482.6,368.7z
									 M2463.3,368.7h-17.9l17.9,12V368.7z"/>
							</g>
						</g>
					</g>
				</g>
			</g>
			<path class="st3" d="M2658,521c-46.4,0-84-56.4-84-126s37.6-126,84-126s84,56.4,84,126S2704.4,521,2658,521z"/>
			<g>
				<g>
					<g>
						<defs>
							<rect id="SVGID_65_" x="2599" y="305" width="119" height="179"/>
						</defs>
						<clipPath id="SVGID_66_">
							<use xlink:href="#SVGID_65_"  style="overflow:visible;"/>
						</clipPath>
						<g class="st38">
							<g class="st1">
								<path class="st5" d="M2674.3,395.1h9.3v35.1c-3.5-0.4-6.8-1.5-10-3.4c-3.1-1.9-7.3-5.7-12.5-11.3c-4.2-4.5-7.1-7.3-8.6-8.3
									c-2.1-1.4-4.1-2.1-6.1-2.1c-2.2,0-4,0.6-5.2,1.8c-1.2,1.2-1.8,2.9-1.8,5s0.6,3.8,1.9,5c1.3,1.2,3.4,1.9,6.3,2.1l-1,10
									c-5.5-0.6-9.5-2.5-11.9-5.6s-3.6-7.1-3.6-11.8c0-5.2,1.4-9.2,4.2-12.2c2.8-2.9,6.2-4.4,10.4-4.4c2.4,0,4.6,0.4,6.7,1.3
									c2.1,0.8,4.4,2.2,6.7,4c1.5,1.2,3.8,3.4,6.7,6.6s4.8,5.2,5.8,6s1.9,1.5,2.8,2L2674.3,395.1L2674.3,395.1z"/>
								<path class="st5" d="M2641.3,388.3h-9.3V354h7.3c2.8,2.8,6.8,5.7,12,8.6s10.7,5.2,16.6,6.7c5.9,1.5,11.1,2.3,15.7,2.3v9.7
									c-7.2-0.2-14.6-1.7-22.1-4.5s-14.2-6.6-20.1-11.3L2641.3,388.3L2641.3,388.3z"/>
							</g>
						</g>
					</g>
				</g>
			</g>
			<path class="st3" d="M2854,521c-46.4,0-84-56.4-84-126s37.6-126,84-126s84,56.4,84,126S2900.4,521,2854,521z"/>
			<g>
				<g>
					<g>
						<defs>
							<rect id="SVGID_67_" x="2794" y="305" width="119" height="179"/>
						</defs>
						<clipPath id="SVGID_68_">
							<use xlink:href="#SVGID_67_"  style="overflow:visible;"/>
						</clipPath>
						<g class="st39">
							<g class="st1">
								<path class="st5" d="M2865,429.3l-1.2-9.7c2.5-0.3,4.4-1.1,5.7-2.5s2-3,2-4.9c0-2.1-0.8-3.8-2.4-5.2
									c-1.6-1.4-3.7-2.1-6.3-2.1c-2.5,0-4.5,0.7-6,2s-2.2,3-2.2,5c0,1.3,0.2,2.8,0.8,4.6l-8.2-1.1c0.1-2.7-0.5-4.8-1.8-6.2
									s-2.9-2.1-5-2.1c-1.8,0-3.2,0.5-4.2,1.6c-1,1-1.6,2.4-1.6,4.2c0,1.7,0.6,3.2,1.8,4.4c1.2,1.2,2.9,1.9,5.2,2.2l-1.6,9.2
									c-3.2-0.6-5.7-1.6-7.6-2.9c-1.9-1.3-3.4-3.1-4.5-5.4s-1.6-4.9-1.6-7.8c0-4.9,1.6-8.9,4.7-11.8c2.6-2.4,5.5-3.7,8.7-3.7
									c4.6,0,8.2,2.5,11,7.5c0.6-3,2.1-5.4,4.3-7.2c2.2-1.8,4.9-2.7,8.1-2.7c4.6,0,8.5,1.7,11.7,5c3.2,3.4,4.8,7.5,4.8,12.5
									c0,4.7-1.4,8.6-4.1,11.8C2873,427,2869.4,428.8,2865,429.3z"/>
								<path class="st5" d="M2826.4,371.4c0-5.1,1.8-9,5.4-11.9c4.3-3.4,11.4-5.1,21.3-5.1c9.9,0,17,1.7,21.3,5.1
									c3.6,2.8,5.3,6.8,5.3,11.8c0,5.1-2,9.2-5.9,12.3c-3.9,3.1-10.9,4.7-20.9,4.7c-9.8,0-16.9-1.7-21.2-5.1
									C2828.2,380.4,2826.4,376.4,2826.4,371.4z M2834.7,371.4c0,1.2,0.4,2.3,1.2,3.2c0.8,1,2.2,1.7,4.2,2.2c2.6,0.7,7,1,13.1,1
									s10.3-0.3,12.6-0.9s3.8-1.4,4.6-2.3s1.1-2,1.1-3.2s-0.4-2.3-1.2-3.2c-0.8-1-2.2-1.7-4.2-2.2c-2.6-0.7-6.9-1-13-1
									s-10.3,0.3-12.6,0.9s-3.8,1.4-4.6,2.3C2835.1,369.1,2834.7,370.2,2834.7,371.4z"/>
							</g>
						</g>
					</g>
				</g>
			</g>
			<path class="st6" d="M3048.5,521c-46.7,0-84.5-56.4-84.5-126s37.8-126,84.5-126s84.5,56.4,84.5,126S3095.2,521,3048.5,521z"/>
			<g>
				<g>
					<g>
						<defs>
							<rect id="SVGID_69_" x="2988" y="305" width="121" height="179"/>
						</defs>
						<clipPath id="SVGID_70_">
							<use xlink:href="#SVGID_69_"  style="overflow:visible;"/>
						</clipPath>
						<g class="st40">
							<g class="st1">
								<path class="st5" d="M3059.9,429.3l-1.2-9.7c2.5-0.3,4.4-1.1,5.7-2.5s2-3,2-4.9c0-2.1-0.8-3.8-2.4-5.2
									c-1.6-1.4-3.7-2.1-6.3-2.1c-2.5,0-4.5,0.7-6,2c-1.5,1.4-2.2,3-2.2,5c0,1.3,0.2,2.8,0.7,4.6l-8.2-1.1
									c0.1-2.7-0.5-4.8-1.8-6.2c-1.2-1.4-2.9-2.1-5-2.1c-1.8,0-3.2,0.5-4.2,1.6c-1,1-1.6,2.4-1.6,4.2c0,1.7,0.6,3.2,1.8,4.4
									c1.2,1.2,2.9,1.9,5.2,2.2l-1.6,9.2c-3.2-0.6-5.7-1.6-7.6-2.9c-1.9-1.3-3.4-3.1-4.5-5.4s-1.6-4.9-1.6-7.8
									c0-4.9,1.6-8.9,4.7-11.8c2.6-2.4,5.5-3.7,8.7-3.7c4.6,0,8.2,2.5,11,7.5c0.6-3,2.1-5.4,4.3-7.2c2.2-1.8,4.9-2.7,8.1-2.7
									c4.6,0,8.5,1.7,11.7,5c3.2,3.4,4.8,7.5,4.8,12.5c0,4.7-1.4,8.6-4.1,11.8C3067.8,427,3064.3,428.8,3059.9,429.3z"/>
								<path class="st5" d="M3059.9,388.7l-1.2-9.7c2.5-0.3,4.4-1.1,5.7-2.5s2-3,2-4.9c0-2.1-0.8-3.8-2.4-5.2
									c-1.6-1.4-3.7-2.1-6.3-2.1c-2.5,0-4.5,0.7-6,2c-1.5,1.4-2.2,3-2.2,5c0,1.3,0.2,2.8,0.7,4.6l-8.2-1.1
									c0.1-2.7-0.5-4.8-1.8-6.2c-1.2-1.4-2.9-2.1-5-2.1c-1.8,0-3.2,0.5-4.2,1.6c-1,1-1.6,2.4-1.6,4.2c0,1.7,0.6,3.2,1.8,4.4
									c1.2,1.2,2.9,1.9,5.2,2.2l-1.6,9.2c-3.2-0.6-5.7-1.6-7.6-2.9c-1.9-1.3-3.4-3.1-4.5-5.4s-1.6-4.9-1.6-7.8
									c0-4.9,1.6-8.9,4.7-11.8c2.6-2.4,5.5-3.7,8.7-3.7c4.6,0,8.2,2.5,11,7.5c0.6-3,2.1-5.4,4.3-7.2c2.2-1.8,4.9-2.7,8.1-2.7
									c4.6,0,8.5,1.7,11.7,5c3.2,3.4,4.8,7.5,4.8,12.5c0,4.7-1.4,8.6-4.1,11.8C3067.8,386.4,3064.3,388.2,3059.9,388.7z"/>
							</g>
						</g>
					</g>
				</g>
			</g>
			<path class="st3" d="M3244,521c-46.9,0-85-56.4-85-126s38.1-126,85-126s85,56.4,85,126S3290.9,521,3244,521z"/>
			<g>
				<g>
					<g>
						<defs>
							<rect id="SVGID_71_" x="3183" y="305" width="121" height="179"/>
						</defs>
						<clipPath id="SVGID_72_">
							<use xlink:href="#SVGID_71_"  style="overflow:visible;"/>
						</clipPath>
						<g class="st41">
							<g class="st1">
								<path class="st5" d="M3255.2,429.3l-1.2-9.7c2.5-0.3,4.4-1.1,5.7-2.5s2-3,2-4.9c0-2.1-0.8-3.8-2.4-5.2
									c-1.6-1.4-3.7-2.1-6.3-2.1c-2.5,0-4.5,0.7-6,2s-2.2,3-2.2,5c0,1.3,0.2,2.8,0.8,4.6l-8.2-1.1c0.1-2.7-0.5-4.8-1.8-6.2
									s-2.9-2.1-5-2.1c-1.8,0-3.2,0.5-4.2,1.6c-1,1-1.6,2.4-1.6,4.2c0,1.7,0.6,3.2,1.8,4.4c1.2,1.2,2.9,1.9,5.2,2.2l-1.6,9.2
									c-3.2-0.6-5.7-1.6-7.6-2.9c-1.9-1.3-3.4-3.1-4.5-5.4s-1.6-4.9-1.6-7.8c0-4.9,1.6-8.9,4.7-11.8c2.6-2.4,5.5-3.7,8.7-3.7
									c4.6,0,8.2,2.5,11,7.5c0.6-3,2.1-5.4,4.3-7.2c2.2-1.8,4.9-2.7,8.1-2.7c4.6,0,8.5,1.7,11.7,5c3.2,3.4,4.8,7.5,4.8,12.5
									c0,4.7-1.4,8.6-4.1,11.8C3263.1,427,3259.6,428.8,3255.2,429.3z"/>
								<path class="st5" d="M3229.6,354.4l1.1,9.7c-2,0.2-3.5,0.9-4.4,1.9c-1,1-1.4,2.3-1.4,3.9c0,2.1,0.9,3.9,2.9,5.4
									c1.9,1.5,5.9,2.4,11.9,2.8c-2.9-2.5-4.4-5.6-4.4-9.3c0-4.2,1.6-7.8,4.8-10.7c3.2-3,7.3-4.5,12.3-4.5c5.3,0,9.6,1.6,12.9,4.7
									c3.2,3.1,4.8,7.2,4.8,12.1c0,5.3-2,9.6-6.1,13s-10.8,5.1-20.2,5.1c-9.6,0-16.5-1.8-20.7-5.3s-6.3-8.1-6.3-13.8
									c0-4,1.1-7.3,3.3-9.9C3222.1,356.7,3225.4,355.1,3229.6,354.4z M3251.5,377.1c3.3,0,5.8-0.7,7.5-2.2
									c1.8-1.5,2.7-3.2,2.7-5.1s-0.7-3.4-2.2-4.6c-1.4-1.2-3.8-1.9-7.1-1.9c-3.4,0-5.9,0.7-7.5,2s-2.4,3-2.4,5
									c0,1.9,0.8,3.6,2.3,4.9C3246.3,376.4,3248.5,377.1,3251.5,377.1z"/>
							</g>
						</g>
					</g>
				</g>
			</g>
			<path class="st42" d="M790.5,688.8V264.2l32.7-32.7h163.3l0,0v490l0,0H823.2L790.5,688.8z"/>
			<path class="st42" d="M790.5,1180.8V755.2l32.7-32.7h163.3l0,0v491l0,0H823.2L790.5,1180.8z"/>
			<rect x="985.5" y="1213.5" class="st0" width="782" height="197"/>
			<g>
				<g>
					<g>
						<defs>
							<rect id="SVGID_73_" x="985" y="1213.2" width="782.3" height="196.6"/>
						</defs>
						<clipPath id="SVGID_74_">
							<use xlink:href="#SVGID_73_"  style="overflow:visible;"/>
						</clipPath>
						<g class="st43">
							<g class="st1">
								<path class="st2" d="M1306,1340h-11.4v-42.9c-4.2,3.9-9.1,6.8-14.7,8.6v-10.3c3-1,6.2-2.8,9.7-5.5s5.9-5.9,7.2-9.5h9.2
									L1306,1340L1306,1340z"/>
								<path class="st2" d="M1321.4,1327.7l11.4-1.7c0.5,2.2,1.5,3.9,3,5s3.6,1.7,6.2,1.7c2.9,0,5.2-0.5,6.6-1.6
									c1-0.8,1.5-1.8,1.5-3c0-0.9-0.3-1.6-0.8-2.1c-0.6-0.5-1.8-1-3.8-1.5c-9.2-2-15-3.9-17.5-5.6c-3.4-2.3-5.1-5.6-5.1-9.7
									c0-3.7,1.5-6.9,4.4-9.4s7.5-3.8,13.7-3.8c5.9,0,10.3,1,13.1,2.9c2.9,1.9,4.8,4.8,5.9,8.5l-10.7,2c-0.5-1.7-1.3-3-2.6-3.8
									c-1.3-0.9-3.1-1.3-5.5-1.3c-3,0-5.1,0.4-6.4,1.3c-0.9,0.6-1.3,1.4-1.3,2.3c0,0.8,0.4,1.5,1.1,2.1c1,0.8,4.6,1.8,10.6,3.2
									c6.1,1.4,10.3,3.1,12.7,5.1c2.4,2,3.6,4.9,3.6,8.5c0,3.9-1.6,7.3-4.9,10.2c-3.3,2.8-8.2,4.3-14.6,4.3
									c-5.9,0-10.5-1.2-13.9-3.6C1324.7,1335,1322.5,1331.8,1321.4,1327.7z"/>
								<path class="st2" d="M1391.3,1297v9.1h-7.8v17.3c0,3.5,0.1,5.6,0.2,6.1c0.1,0.6,0.5,1.1,1,1.4c0.5,0.4,1.2,0.6,1.9,0.6
									c1.1,0,2.6-0.4,4.6-1.1l1,8.8c-2.6,1.1-5.6,1.7-9,1.7c-2.1,0-3.9-0.3-5.6-1c-1.6-0.7-2.9-1.6-3.6-2.7
									c-0.8-1.1-1.3-2.6-1.6-4.4c-0.2-1.3-0.4-4-0.4-8V1306h-5.2v-9.1h5.2v-8.6l11.4-6.6v15.2L1391.3,1297L1391.3,1297z"/>
								<path class="st2" d="M1449,1340h-11.4v-42.9c-4.2,3.9-9.1,6.8-14.7,8.6v-10.3c3-1,6.2-2.8,9.7-5.5s5.9-5.9,7.2-9.5h9.2
									L1449,1340L1449,1340z"/>
								<path class="st2" d="M1504.5,1329.4v10.6h-39.9c0.4-4,1.7-7.8,3.9-11.4c2.2-3.6,6.4-8.3,12.8-14.2c5.1-4.8,8.3-8,9.4-9.7
									c1.6-2.4,2.4-4.7,2.4-7c0-2.5-0.7-4.5-2-5.9c-1.4-1.4-3.2-2-5.7-2c-2.4,0-4.3,0.7-5.7,2.1c-1.4,1.4-2.2,3.8-2.4,7.1
									l-11.3-1.1c0.7-6.3,2.8-10.8,6.4-13.5s8-4.1,13.4-4.1c5.9,0,10.5,1.6,13.8,4.7c3.3,3.2,5,7.1,5,11.8c0,2.7-0.5,5.2-1.4,7.6
									c-1,2.4-2.5,5-4.6,7.6c-1.4,1.8-3.9,4.3-7.5,7.6c-3.6,3.3-5.9,5.5-6.8,6.6c-1,1.1-1.7,2.1-2.3,3.2L1504.5,1329.4
									L1504.5,1329.4z"/>
							</g>
						</g>
					</g>
				</g>
			</g>
			<rect x="1774.5" y="1213.5" class="st0" width="783" height="197"/>
			<g>
				<g>
					<g>
						<defs>
							<rect id="SVGID_75_" x="1773.8" y="1213.2" width="783" height="196.6"/>
						</defs>
						<clipPath id="SVGID_76_">
							<use xlink:href="#SVGID_75_"  style="overflow:visible;"/>
						</clipPath>
						<g class="st44">
							<g class="st1">
								<path class="st2" d="M2090.9,1329.4v10.6H2051c0.4-4,1.7-7.8,3.9-11.4s6.4-8.3,12.8-14.2c5.1-4.8,8.3-8,9.4-9.7
									c1.6-2.4,2.4-4.7,2.4-7c0-2.5-0.7-4.5-2-5.9c-1.4-1.4-3.2-2-5.7-2c-2.4,0-4.3,0.7-5.7,2.1s-2.2,3.8-2.4,7.1l-11.3-1.1
									c0.7-6.3,2.8-10.8,6.4-13.5c3.6-2.7,8-4.1,13.4-4.1c5.9,0,10.5,1.6,13.8,4.7c3.3,3.2,5,7.1,5,11.8c0,2.7-0.5,5.2-1.4,7.6
									c-1,2.4-2.5,5-4.6,7.6c-1.4,1.8-3.9,4.3-7.5,7.6c-3.6,3.3-5.9,5.5-6.8,6.6c-1,1.1-1.7,2.1-2.3,3.2L2090.9,1329.4
									L2090.9,1329.4z"/>
								<path class="st2" d="M2140.2,1340h-11.4v-22c0-4.6-0.2-7.7-0.7-9c-0.5-1.4-1.3-2.4-2.4-3.2c-1.1-0.8-2.4-1.1-4-1.1
									c-2,0-3.7,0.5-5.3,1.6s-2.6,2.5-3.2,4.3s-0.9,5.1-0.9,9.9v19.5H2101v-43h10.6v6.3c3.8-4.9,8.5-7.3,14.2-7.3
									c2.5,0,4.8,0.5,6.9,1.4c2.1,0.9,3.7,2.1,4.7,3.5c1.1,1.4,1.8,3,2.2,4.8s0.6,4.3,0.6,7.7V1340z"/>
								<path class="st2" d="M2191.2,1340h-10.6v-6.3c-1.8,2.5-3.8,4.3-6.2,5.5s-4.8,1.8-7.2,1.8c-4.9,0-9.2-2-12.7-6
									s-5.3-9.5-5.3-16.7c0-7.3,1.7-12.8,5.1-16.6c3.4-3.8,7.8-5.7,13-5.7c4.8,0,9,2,12.5,6v-21.4h11.4V1340z M2160.8,1317.5
									c0,4.6,0.6,7.9,1.9,10c1.8,3,4.4,4.5,7.7,4.5c2.6,0,4.8-1.1,6.7-3.3c1.8-2.2,2.8-5.6,2.8-10c0-4.9-0.9-8.5-2.7-10.7
									s-4.1-3.3-6.8-3.3s-5,1.1-6.8,3.2C2161.7,1310.1,2160.8,1313.3,2160.8,1317.5z"/>
								<path class="st2" d="M2252.2,1340h-11.4v-42.9c-4.2,3.9-9.1,6.8-14.7,8.6v-10.3c3-1,6.2-2.8,9.7-5.5s5.9-5.9,7.2-9.5h9.2
									V1340z"/>
								<path class="st2" d="M2307.7,1329.4v10.6h-39.9c0.4-4,1.7-7.8,3.9-11.4s6.4-8.3,12.8-14.2c5.1-4.8,8.3-8,9.4-9.7
									c1.6-2.4,2.4-4.7,2.4-7c0-2.5-0.7-4.5-2-5.9c-1.4-1.4-3.2-2-5.7-2c-2.4,0-4.3,0.7-5.7,2.1s-2.2,3.8-2.4,7.1l-11.3-1.1
									c0.7-6.3,2.8-10.8,6.4-13.5c3.6-2.7,8-4.1,13.4-4.1c5.9,0,10.5,1.6,13.8,4.7c3.3,3.2,5,7.1,5,11.8c0,2.7-0.5,5.2-1.4,7.6
									c-1,2.4-2.5,5-4.6,7.6c-1.4,1.8-3.9,4.3-7.5,7.6c-3.6,3.3-5.9,5.5-6.8,6.6c-1,1.1-1.7,2.1-2.3,3.2L2307.7,1329.4
									L2307.7,1329.4z"/>
							</g>
						</g>
					</g>
				</g>
			</g>
			<rect x="2562.5" y="1213.5" class="st0" width="782" height="197"/>
			<g>
				<g>
					<g>
						<defs>
							<rect id="SVGID_77_" x="2561.6" y="1213.2" width="782.1" height="196.6"/>
						</defs>
						<clipPath id="SVGID_78_">
							<use xlink:href="#SVGID_77_"  style="overflow:visible;"/>
						</clipPath>
						<g class="st45">
							<g class="st1">
								<path class="st2" d="M2846.9,1324.2l11-1.3c0.4,2.8,1.3,5,2.8,6.4c1.5,1.5,3.4,2.2,5.6,2.2c2.4,0,4.3-0.9,5.9-2.7
									s2.4-4.2,2.4-7.2c0-2.9-0.8-5.1-2.3-6.8c-1.5-1.7-3.4-2.5-5.6-2.5c-1.5,0-3.2,0.3-5.2,0.9l1.3-9.3c3.1,0.1,5.4-0.6,7.1-2
									c1.6-1.4,2.4-3.3,2.4-5.7c0-2-0.6-3.6-1.8-4.8c-1.2-1.2-2.8-1.8-4.7-1.8s-3.6,0.7-5,2c-1.4,1.4-2.2,3.3-2.5,5.9l-10.5-1.8
									c0.7-3.6,1.8-6.5,3.3-8.6s3.5-3.8,6.2-5.1c2.6-1.2,5.6-1.8,8.9-1.8c5.6,0,10.1,1.8,13.5,5.3c2.8,2.9,4.2,6.2,4.2,9.9
									c0,5.2-2.9,9.4-8.6,12.5c3.4,0.7,6.1,2.4,8.2,4.9c2,2.5,3.1,5.6,3.1,9.2c0,5.2-1.9,9.7-5.7,13.3c-3.8,3.7-8.6,5.5-14.2,5.5
									c-5.4,0-9.8-1.5-13.4-4.6C2849.5,1333.3,2847.4,1329.2,2846.9,1324.2z"/>
								<path class="st2" d="M2906.8,1340h-11.4v-43h10.6v6.1c1.8-2.9,3.4-4.8,4.9-5.7c1.4-0.9,3.1-1.4,4.9-1.4
									c2.6,0,5.1,0.7,7.5,2.1l-3.5,9.9c-1.9-1.2-3.7-1.9-5.3-1.9s-2.9,0.4-4.1,1.3c-1.1,0.9-2,2.5-2.6,4.8s-1,7.1-1,14.4
									L2906.8,1340L2906.8,1340z"/>
								<path class="st2" d="M2967.6,1340H2957v-6.3c-1.8,2.5-3.8,4.3-6.2,5.5s-4.8,1.8-7.2,1.8c-4.9,0-9.2-2-12.7-6
									s-5.3-9.5-5.3-16.7c0-7.3,1.7-12.8,5.1-16.6c3.4-3.8,7.8-5.7,13-5.7c4.8,0,9,2,12.5,6v-21.4h11.4V1340z M2937.2,1317.5
									c0,4.6,0.6,7.9,1.9,10c1.8,3,4.4,4.5,7.7,4.5c2.6,0,4.8-1.1,6.7-3.3c1.8-2.2,2.8-5.6,2.8-10c0-4.9-0.9-8.5-2.7-10.7
									s-4.1-3.3-6.8-3.3s-5,1.1-6.8,3.2C2938.1,1310.1,2937.2,1313.3,2937.2,1317.5z"/>
								<path class="st2" d="M3028.6,1340h-11.4v-42.9c-4.2,3.9-9.1,6.8-14.7,8.6v-10.3c3-1,6.2-2.8,9.7-5.5s5.9-5.9,7.2-9.5h9.2
									V1340z"/>
								<path class="st2" d="M3084.1,1329.4v10.6h-39.9c0.4-4,1.7-7.8,3.9-11.4s6.4-8.3,12.8-14.2c5.1-4.8,8.3-8,9.4-9.7
									c1.6-2.4,2.4-4.7,2.4-7c0-2.5-0.7-4.5-2-5.9c-1.4-1.4-3.2-2-5.7-2c-2.4,0-4.3,0.7-5.7,2.1s-2.2,3.8-2.4,7.1l-11.3-1.1
									c0.7-6.3,2.8-10.8,6.4-13.5c3.6-2.7,8-4.1,13.4-4.1c5.9,0,10.5,1.6,13.8,4.7c3.3,3.2,5,7.1,5,11.8c0,2.7-0.5,5.2-1.4,7.6
									s-2.5,5-4.6,7.6c-1.4,1.8-3.9,4.3-7.5,7.6c-3.6,3.3-5.9,5.5-6.8,6.6c-1,1.1-1.7,2.1-2.3,3.2L3084.1,1329.4L3084.1,1329.4z"
									/>
							</g>
						</g>
					</g>
				</g>
			</g>
			<path class="st46" d="M1771.5,232.5v1179.2"/>
			<path class="st46" d="M1771.5,230.5v1379.1"/>
			<path class="st46" d="M2558.5,231.5v1376.9"/>
			<rect x="984.5" y="1409.5" class="st0" width="394" height="197"/>
			<rect x="1379.5" y="1409.5" class="st0" width="389" height="197"/>
			<rect x="1774.5" y="1409.5" class="st0" width="398" height="197"/>
			<rect x="2171.5" y="1409.5" class="st0" width="384" height="197"/>
			<rect x="2561.5" y="1409.5" class="st0" width="401" height="197"/>
			<rect x="2961.5" y="1409.5" class="st0" width="386" height="197"/>
			<path class="st46" d="M3344.5,230.5V1607"/>
			<path class="st47" d="M1822.5,1507.5l151-67l151,67l-151,67L1822.5,1507.5z"/>
			<path class="st48" d="M2211.5,1507.5l151.5-67l151.5,67l-151.5,67L2211.5,1507.5z"/>
			<path class="st49" d="M888.5,1093.5c-46.4,0-84-56.2-84-125.5s37.6-125.5,84-125.5s84,56.2,84,125.5S934.9,1093.5,888.5,1093.5z"
				/>
			<g>
				<g>
					<g>
						<defs>
							<rect id="SVGID_79_" x="828" y="878" width="120" height="178"/>
						</defs>
						<clipPath id="SVGID_80_">
							<use xlink:href="#SVGID_79_"  style="overflow:visible;"/>
						</clipPath>
						<g class="st50">
							<g class="st1">
								<path class="st2" d="M860.8,966c0-5.1,1.8-9,5.4-11.9c4.3-3.4,11.4-5.1,21.3-5.1c9.9,0,17,1.7,21.3,5.1
									c3.6,2.8,5.3,6.8,5.3,11.8c0,5.1-2,9.2-5.9,12.3s-10.9,4.7-20.9,4.7c-9.8,0-16.9-1.7-21.2-5.1
									C862.6,975,860.8,971,860.8,966z M869.1,966c0,1.2,0.4,2.3,1.2,3.2c0.8,1,2.2,1.7,4.2,2.2c2.6,0.7,7,1,13.1,1
									s10.3-0.3,12.6-0.9s3.8-1.4,4.6-2.3c0.8-0.9,1.1-2,1.1-3.2s-0.4-2.3-1.2-3.2c-0.8-1-2.2-1.7-4.2-2.2c-2.6-0.7-6.9-1-13-1
									s-10.3,0.3-12.6,0.9c-2.3,0.6-3.8,1.4-4.6,2.3C869.5,963.7,869.1,964.8,869.1,966z"/>
							</g>
						</g>
					</g>
				</g>
			</g>
			<path class="st49" d="M893,619.5c-46.7,0-84.5-56.2-84.5-125.5s37.8-125.5,84.5-125.5s84.5,56.2,84.5,125.5
				S939.7,619.5,893,619.5z"/>
			<g>
				<g>
					<g>
						<defs>
							<rect id="SVGID_81_" x="832" y="404" width="120" height="178"/>
						</defs>
						<clipPath id="SVGID_82_">
							<use xlink:href="#SVGID_81_"  style="overflow:visible;"/>
						</clipPath>
						<g class="st51">
							<g class="st1">
								<path class="st2" d="M865,510c0-5.1,1.8-9,5.4-11.9c4.3-3.4,11.4-5.1,21.3-5.1c9.9,0,17,1.7,21.3,5.1
									c3.6,2.8,5.3,6.8,5.3,11.8c0,5.1-2,9.2-5.9,12.3c-3.9,3.1-10.9,4.7-20.9,4.7c-9.8,0-16.9-1.7-21.2-5.1
									C866.8,519,865,515,865,510z M873.3,510c0,1.2,0.4,2.3,1.2,3.2c0.8,1,2.2,1.7,4.2,2.2c2.6,0.7,7,1,13.1,1s10.3-0.3,12.6-0.9
									c2.3-0.6,3.8-1.4,4.6-2.3c0.8-0.9,1.1-2,1.1-3.2s-0.4-2.3-1.2-3.2c-0.8-1-2.2-1.7-4.2-2.2c-2.6-0.7-6.9-1-13-1
									s-10.3,0.3-12.6,0.9s-3.8,1.4-4.6,2.3C873.7,507.7,873.3,508.8,873.3,510z"/>
								<path class="st2" d="M865,469.4c0-5.1,1.8-9,5.4-11.9c4.3-3.4,11.4-5.1,21.3-5.1c9.9,0,17,1.7,21.3,5.1
									c3.6,2.8,5.3,6.8,5.3,11.8c0,5.1-2,9.2-5.9,12.3c-3.9,3.1-10.9,4.7-20.9,4.7c-9.8,0-16.9-1.7-21.2-5.1
									C866.8,478.4,865,474.4,865,469.4z M873.3,469.4c0,1.2,0.4,2.3,1.2,3.2c0.8,1,2.2,1.7,4.2,2.2c2.6,0.7,7,1,13.1,1
									s10.3-0.3,12.6-0.9s3.8-1.4,4.6-2.3s1.1-2,1.1-3.2s-0.4-2.3-1.2-3.2c-0.8-1-2.2-1.7-4.2-2.2c-2.6-0.7-6.9-1-13-1
									s-10.3,0.3-12.6,0.9s-3.8,1.4-4.6,2.3C873.7,467.1,873.3,468.2,873.3,469.4z"/>
							</g>
						</g>
					</g>
				</g>
			</g>
		</g>
	</g>
</g>
<g>
	<path class="st2" d="M329.9,1314.1h-12.3v-43.9c-4.5,4-9.8,6.9-15.9,8.8v-10.6c3.2-1,6.7-2.9,10.5-5.7s6.4-6,7.8-9.7h10V1314.1z"/>
	<path class="st2" d="M349.5,1297.8v-11.6h24.2v11.6H349.5z"/>
	<path class="st2" d="M409.8,1314.1h-12.3v-43.9c-4.5,4-9.8,6.9-15.9,8.8v-10.6c3.2-1,6.7-2.9,10.5-5.7s6.4-6,7.8-9.7h10V1314.1z"/>
	<path class="st2" d="M438.8,1281.3c-3.2-1.3-5.5-3-7-5.2c-1.4-2.2-2.2-4.7-2.2-7.3c0-4.5,1.7-8.3,5-11.2c3.4-3,8.1-4.4,14.3-4.4
		c6.1,0,10.9,1.5,14.2,4.4s5.1,6.7,5.1,11.2c0,2.8-0.8,5.3-2.3,7.5c-1.6,2.2-3.7,3.9-6.5,5c3.6,1.4,6.3,3.3,8.1,5.9
		c1.9,2.6,2.8,5.6,2.8,9c0,5.6-1.9,10.2-5.7,13.7c-3.8,3.5-8.8,5.3-15.1,5.3c-5.9,0-10.7-1.5-14.6-4.4c-4.6-3.4-6.9-8.1-6.9-14.1
		c0-3.3,0.9-6.3,2.6-9.1C432.4,1284.9,435.1,1282.8,438.8,1281.3z M440.2,1295.6c0,3.2,0.9,5.7,2.6,7.5c1.7,1.8,3.9,2.7,6.5,2.7
		c2.5,0,4.7-0.9,6.3-2.6c1.7-1.7,2.5-4.2,2.5-7.5c0-2.8-0.8-5.1-2.5-6.9c-1.7-1.7-3.8-2.6-6.5-2.6c-3,0-5.3,1-6.7,2.9
		C441,1291.2,440.2,1293.3,440.2,1295.6z M441.4,1269.5c0,2.3,0.7,4.1,2.1,5.4c1.4,1.3,3.2,1.9,5.6,1.9c2.3,0,4.2-0.7,5.6-2
		s2.1-3.1,2.1-5.4c0-2.2-0.7-3.9-2.1-5.2c-1.4-1.3-3.2-2-5.5-2c-2.4,0-4.3,0.7-5.7,2C442.1,1265.6,441.4,1267.4,441.4,1269.5z"/>
</g>
<g>
	<path class="st2" d="M700.1,1306.4v-52.7h41.4v8.9h-30.1v11.7h28v8.9h-28v14.3h31.2v8.9H700.1z"/>
	<path class="st2" d="M763.2,1306.4l-16.3-38.2h11.2l7.6,19.5l2.2,6.5c0.6-1.7,1-2.7,1.1-3.3c0.4-1.1,0.7-2.2,1.1-3.2l7.7-19.5h11
		l-16.1,38.2H763.2z"/>
	<path class="st2" d="M818.8,1294.2l10.7,1.7c-1.4,3.7-3.5,6.5-6.5,8.4c-3,1.9-6.7,2.9-11.1,2.9c-7,0-12.2-2.2-15.6-6.5
		c-2.7-3.5-4-7.9-4-13.1c0-6.3,1.8-11.3,5.3-14.9c3.5-3.6,7.9-5.4,13.3-5.4c6,0,10.8,1.9,14.2,5.6s5.1,9.5,5,17.2h-26.8
		c0.1,3,0.9,5.3,2.6,7c1.6,1.7,3.7,2.5,6.2,2.5c1.7,0,3.1-0.4,4.2-1.3C817.4,1297.5,818.2,1296.1,818.8,1294.2z M819.4,1284
		c-0.1-2.9-0.9-5.1-2.4-6.7c-1.5-1.5-3.4-2.3-5.6-2.3c-2.3,0-4.3,0.8-5.8,2.4c-1.5,1.6-2.3,3.8-2.2,6.5H819.4z"/>
	<path class="st2" d="M875.6,1306.4h-10.7v-19.5c0-4.1-0.2-6.8-0.7-8c-0.5-1.2-1.2-2.1-2.2-2.8c-1-0.7-2.3-1-3.7-1
		c-1.9,0-3.5,0.5-5,1.4c-1.5,1-2.5,2.2-3,3.8c-0.5,1.6-0.8,4.5-0.8,8.8v17.3h-10.7v-38.2h9.9v5.6c3.5-4.3,8-6.5,13.3-6.5
		c2.4,0,4.5,0.4,6.5,1.2c2,0.8,3.4,1.8,4.4,3.1s1.7,2.7,2.1,4.2c0.4,1.6,0.6,3.8,0.6,6.8V1306.4z"/>
</g>
<g>
	<path class="st2" d="M1897.8,1280.4c0-5.4,0.9-9.9,2.6-13.5c1.3-2.7,3-5.1,5.2-7.2s4.6-3.7,7.2-4.7c3.5-1.4,7.5-2.1,12-2.1
		c8.2,0,14.8,2.4,19.7,7.2s7.4,11.5,7.4,20.1c0,8.5-2.5,15.2-7.3,20c-4.9,4.8-11.4,7.2-19.6,7.2c-8.3,0-14.9-2.4-19.8-7.2
		C1900.3,1295.3,1897.8,1288.7,1897.8,1280.4z M1909.5,1280c0,6,1.5,10.5,4.4,13.6c2.9,3.1,6.6,4.6,11.1,4.6c4.5,0,8.2-1.5,11.1-4.6
		c2.9-3.1,4.3-7.6,4.3-13.7c0-6-1.4-10.5-4.2-13.5c-2.8-3-6.5-4.5-11.2-4.5c-4.6,0-8.4,1.5-11.2,4.5S1909.5,1273.9,1909.5,1280z"/>
	<path class="st2" d="M1997.8,1306.4h-9.9v-5.6c-1.7,2.2-3.6,3.8-5.8,4.9s-4.5,1.6-6.8,1.6c-4.6,0-8.6-1.8-11.9-5.3
		c-3.3-3.5-5-8.5-5-14.8c0-6.5,1.6-11.4,4.8-14.7c3.2-3.4,7.3-5,12.2-5c4.5,0,8.4,1.8,11.7,5.3v-19h10.7V1306.4z M1969.2,1286.5
		c0,4.1,0.6,7,1.8,8.8c1.7,2.6,4.1,4,7.2,4c2.5,0,4.6-1,6.3-3c1.7-2,2.6-4.9,2.6-8.9c0-4.4-0.8-7.5-2.5-9.5
		c-1.7-1.9-3.8-2.9-6.4-2.9c-2.5,0-4.7,1-6.4,2.9S1969.2,1282.7,1969.2,1286.5z"/>
	<path class="st2" d="M2045.4,1306.4h-9.9v-5.6c-1.7,2.2-3.6,3.8-5.8,4.9s-4.5,1.6-6.8,1.6c-4.6,0-8.6-1.8-11.9-5.3
		c-3.3-3.5-5-8.5-5-14.8c0-6.5,1.6-11.4,4.8-14.7c3.2-3.4,7.3-5,12.2-5c4.5,0,8.4,1.8,11.7,5.3v-19h10.7V1306.4z M2016.9,1286.5
		c0,4.1,0.6,7,1.8,8.8c1.7,2.6,4.1,4,7.2,4c2.5,0,4.6-1,6.3-3c1.7-2,2.6-4.9,2.6-8.9c0-4.4-0.8-7.5-2.5-9.5
		c-1.7-1.9-3.8-2.9-6.4-2.9c-2.5,0-4.7,1-6.4,2.9C2017.7,1279.8,2016.9,1282.7,2016.9,1286.5z"/>
</g>
<g>
	<path class="st2" d="M2284.8,1314.1h-12.3v-43.9c-4.5,4-9.8,6.9-15.9,8.8v-10.6c3.2-1,6.7-2.9,10.5-5.7s6.4-6,7.8-9.7h10V1314.1z"
		/>
	<path class="st2" d="M2303.6,1300l11.9-1.2c0.3,2.3,1.1,4,2.3,5.1c1.2,1.1,2.9,1.7,4.9,1.7c2.5,0,4.7-1.1,6.5-3.3
		c1.8-2.2,2.9-6.8,3.4-13.8c-3.1,3.4-7,5.1-11.6,5.1c-5.1,0-9.4-1.8-13.1-5.5c-3.7-3.7-5.5-8.5-5.5-14.4c0-6.2,1.9-11.1,5.8-14.9
		c3.9-3.8,8.8-5.7,14.8-5.7c6.5,0,11.9,2.4,16.1,7.1c4.2,4.8,6.3,12.6,6.3,23.5c0,11.1-2.2,19.1-6.5,24c-4.4,4.9-10,7.4-17,7.4
		c-5,0-9.1-1.3-12.2-3.8C2306.4,1308.8,2304.4,1305,2303.6,1300z M2331.5,1274.6c0-3.8-0.9-6.7-2.7-8.7c-1.8-2.1-3.9-3.1-6.3-3.1
		c-2.3,0-4.2,0.8-5.7,2.5c-1.5,1.7-2.3,4.5-2.3,8.3c0,3.9,0.8,6.8,2.5,8.6s3.7,2.8,6.1,2.8c2.4,0,4.4-0.9,6-2.7
		S2331.5,1278,2331.5,1274.6z"/>
	<path class="st2" d="M2354.5,1297.8v-11.6h24.2v11.6H2354.5z"/>
	<path class="st2" d="M2382.8,1297.9l11.9-1.4c0.4,2.9,1.4,5.1,3.1,6.6c1.7,1.5,3.7,2.3,6.1,2.3c2.5,0,4.7-0.9,6.4-2.7
		s2.6-4.3,2.6-7.4c0-2.9-0.8-5.2-2.5-7c-1.7-1.7-3.7-2.6-6.1-2.6c-1.6,0-3.5,0.3-5.7,0.9l1.4-9.5c3.3,0.1,5.9-0.6,7.6-2.1
		s2.6-3.4,2.6-5.8c0-2-0.6-3.7-1.9-4.9c-1.3-1.2-3-1.8-5.1-1.8c-2.1,0-3.9,0.7-5.4,2.1c-1.5,1.4-2.4,3.4-2.7,6l-11.4-1.8
		c0.8-3.7,2-6.6,3.6-8.8s3.8-3.9,6.7-5.2c2.9-1.3,6.1-1.9,9.6-1.9c6.1,0,10.9,1.8,14.6,5.5c3,3,4.5,6.4,4.5,10.1
		c0,5.3-3.1,9.6-9.3,12.8c3.7,0.7,6.6,2.4,8.8,5c2.2,2.6,3.3,5.7,3.3,9.4c0,5.3-2.1,9.9-6.2,13.6s-9.3,5.6-15.4,5.6
		c-5.8,0-10.7-1.6-14.5-4.7C2385.7,1307.2,2383.4,1303,2382.8,1297.9z"/>
	<path class="st2" d="M2475.1,1268.2l-11.9,1.2c-0.3-2.3-1.1-4-2.3-5.1c-1.2-1.1-2.8-1.7-4.8-1.7c-2.6,0-4.8,1.1-6.6,3.3
		s-2.9,6.8-3.4,13.8c3.1-3.4,6.9-5.1,11.5-5.1c5.2,0,9.6,1.9,13.2,5.6s5.5,8.5,5.5,14.3c0,6.2-1.9,11.2-5.8,15
		c-3.9,3.8-8.8,5.6-14.9,5.6c-6.5,0-11.8-2.4-16-7.1c-4.2-4.8-6.3-12.6-6.3-23.4c0-11.1,2.2-19.2,6.5-24.1c4.4-4.9,10-7.4,17-7.4
		c4.9,0,8.9,1.3,12.1,3.9S2474.2,1263.3,2475.1,1268.2z M2447.1,1293.6c0,3.8,0.9,6.7,2.8,8.8c1.8,2.1,4,3.1,6.3,3.1
		c2.3,0,4.2-0.8,5.7-2.5c1.5-1.7,2.3-4.4,2.3-8.3c0-3.9-0.8-6.8-2.5-8.7c-1.6-1.8-3.7-2.8-6.1-2.8c-2.4,0-4.4,0.9-6,2.6
		C2447.9,1287.6,2447.1,1290.2,2447.1,1293.6z"/>
</g>
</svg>
